<svg width="57" height="72" viewBox="0 0 57 72" fill="none" xmlns="http://www.w3.org/2000/svg">
<path d="M22.6989 33.0453C21.7694 31.8091 21.2188 30.2736 21.2188 28.6087C21.2188 24.5269 24.5282 21.2174 28.6101 21.2174C32.6919 21.2174 36.0014 24.5269 36.0014 28.6087C36.0014 30.2755 35.4507 31.8128 34.5194 33.049" stroke="#23262B" stroke-width="3" stroke-miterlimit="10" stroke-linejoin="round"/>
<path d="M50.7814 70C34.5206 67.0435 33.0423 53.7391 33.0423 50.7826C33.0423 47.8261 33.0423 44.8695 33.0423 44.8695H38.9553L28.6075 33.0435L18.2597 44.8695H24.1727C24.1727 44.8695 24.1727 47.8261 24.1727 50.7826C24.1727 53.7391 22.6945 67.0435 6.43359 70" stroke="#23262B" stroke-width="3" stroke-miterlimit="10" stroke-linejoin="round"/>
<path d="M15.4426 40.4958C12.6007 37.3508 10.8711 33.1821 10.8711 28.6088C10.8711 18.8116 18.8131 10.8696 28.6102 10.8696C38.4074 10.8696 46.3494 18.8116 46.3494 28.6088C46.3494 33.1821 44.6179 37.3508 41.776 40.4958" stroke="#23262B" stroke-width="3" stroke-miterlimit="10" stroke-linejoin="round"/>
<path d="M18.1648 53.0905C8.66141 49.0309 2 39.5977 2 28.6087C2 13.9129 13.9129 2 28.6087 2C43.3045 2 55.2174 13.9129 55.2174 28.6087C55.2174 39.5811 48.5763 49.0032 39.0933 53.0721" stroke="#23262B" stroke-width="3" stroke-miterlimit="10" stroke-linejoin="round"/>
</svg>
