<svg width="68" height="65" viewBox="0 0 68 65" fill="none" xmlns="http://www.w3.org/2000/svg">
<path d="M63.75 41.6667V30.3333C63.75 25.2758 60.265 23.25 56.6667 23.25H45.3333C41.735 23.25 38.25 25.2758 38.25 30.3333V41.6667" stroke="#23262B" stroke-width="3" stroke-miterlimit="10" stroke-linejoin="round"/>
<path d="M58.082 40.2499V30.3333" stroke="#23262B" stroke-width="3" stroke-miterlimit="10" stroke-linejoin="round"/>
<path d="M43.918 30.3333V40.2499" stroke="#23262B" stroke-width="3" stroke-miterlimit="10" stroke-linejoin="round"/>
<path d="M0 41.6666H7.08333" stroke="#23262B" stroke-width="3" stroke-miterlimit="10" stroke-linejoin="round"/>
<path d="M32.582 41.6667H67.9987" stroke="#23262B" stroke-width="3" stroke-miterlimit="10" stroke-linejoin="round"/>
<path d="M50.9987 17.5834C54.2995 17.5834 56.6654 15.2742 56.6654 11.9167V9.08342C56.6654 5.72592 54.2995 3.41675 50.9987 3.41675C47.6979 3.41675 45.332 5.72592 45.332 9.08342V11.9167C45.332 15.2742 47.6979 17.5834 50.9987 17.5834Z" stroke="#23262B" stroke-width="3" stroke-miterlimit="10" stroke-linejoin="round"/>
<path d="M26.9154 47.3333C29.9612 46.8516 32.582 46.0583 32.582 41.6666V28.9166C32.582 23.8591 29.097 21.8333 25.4987 21.8333H14.1654C10.567 21.8333 7.08203 23.8591 7.08203 28.9166V41.6666C7.08203 46.0583 9.70286 46.8516 12.7487 47.3333" stroke="#23262B" stroke-width="3" stroke-miterlimit="10" stroke-linejoin="round"/>
<path d="M26.9167 28.9166H12.75V53H26.9167V28.9166Z" stroke="#23262B" stroke-width="3" stroke-miterlimit="10" stroke-linejoin="round"/>
<path d="M19.8346 16.1667C23.1355 16.1667 25.5013 13.8575 25.5013 10.5V7.66667C25.5013 4.30917 23.1355 2 19.8346 2C16.5338 2 14.168 4.30917 14.168 7.66667V10.5C14.168 13.8575 16.5338 16.1667 19.8346 16.1667Z" stroke="#23262B" stroke-width="3" stroke-miterlimit="10" stroke-linejoin="round"/>
<path d="M65.168 44.5V64.3333" stroke="#23262B" stroke-width="3" stroke-miterlimit="10" stroke-linejoin="round"/>
<path d="M2.83203 44.5V64.3333" stroke="#23262B" stroke-width="3" stroke-miterlimit="10" stroke-linejoin="round"/>
<path d="M19.832 53V62.9167" stroke="#23262B" stroke-width="3" stroke-miterlimit="10" stroke-linejoin="round"/>
<path d="M11.332 62.9167H28.332" stroke="#23262B" stroke-width="3" stroke-miterlimit="10" stroke-linejoin="round"/>
</svg>
