<svg width="90" height="71" viewBox="0 0 90 71" fill="none" xmlns="http://www.w3.org/2000/svg">
<path d="M86.25 69.375C87.2813 69.375 88.125 68.5313 88.125 67.5V3.75C88.125 2.71875 87.2813 1.875 86.25 1.875H3.75C2.71875 1.875 1.875 2.71875 1.875 3.75V67.5C1.875 68.5313 2.71875 69.375 3.75 69.375H86.25Z" stroke="white" stroke-width="3" stroke-miterlimit="10" stroke-linejoin="round"/>
<path d="M5.625 13.125H84.375" stroke="white" stroke-width="3" stroke-miterlimit="10" stroke-linejoin="round"/>
<path d="M7.5 7.5H11.25" stroke="white" stroke-width="3" stroke-miterlimit="10" stroke-linejoin="round"/>
<path d="M13.125 7.5H16.875" stroke="white" stroke-width="3" stroke-miterlimit="10" stroke-linejoin="round"/>
<path d="M39.375 22.5H13.125V45H39.375V22.5Z" stroke="white" stroke-width="3" stroke-miterlimit="10" stroke-linejoin="round"/>
<path d="M76.875 22.5H50.625V45H76.875V22.5Z" stroke="white" stroke-width="3" stroke-miterlimit="10" stroke-linejoin="round"/>
<path d="M13.125 65.625V54.375H39.375V65.625" stroke="white" stroke-width="3" stroke-miterlimit="10" stroke-linejoin="round"/>
<path d="M50.625 65.625V54.375H76.875V65.625" stroke="white" stroke-width="3" stroke-miterlimit="10" stroke-linejoin="round"/>
<path d="M26.25 22.5V45" stroke="white" stroke-width="3" stroke-miterlimit="10" stroke-linejoin="round"/>
<path d="M60 22.5V45" stroke="white" stroke-width="3" stroke-miterlimit="10" stroke-linejoin="round"/>
<path d="M39.375 33.75H26.25" stroke="white" stroke-width="3" stroke-miterlimit="10" stroke-linejoin="round"/>
</svg>
