<svg width="72" height="69" viewBox="0 0 72 69" fill="none" xmlns="http://www.w3.org/2000/svg">
<path d="M49.3043 39.0988H32.1805L28.9783 43.5335H2L13.8261 67.1857H61.1304L49.3043 39.0988Z" stroke="white" stroke-width="3" stroke-miterlimit="10" stroke-linecap="round" stroke-linejoin="round"/>
<path d="M15.3047 67.1857H62.609L70.0003 27.2727H61.1308" stroke="white" stroke-width="3" stroke-miterlimit="10" stroke-linecap="round" stroke-linejoin="round"/>
<path d="M56.6958 43.5336V12.4901H25.6523V39.0988" stroke="white" stroke-width="3" stroke-miterlimit="10" stroke-linecap="round" stroke-linejoin="round"/>
<path d="M45.3646 8.21239L43.9288 2L13.6836 8.99587L19.6798 34.9209" stroke="white" stroke-width="3" stroke-miterlimit="10" stroke-linecap="round" stroke-linejoin="round"/>
<path d="M40.4348 30.2293C42.884 30.2293 44.8696 27.9129 44.8696 25.0554C44.8696 22.1979 42.884 19.8815 40.4348 19.8815C37.9855 19.8815 36 22.1979 36 25.0554C36 27.9129 37.9855 30.2293 40.4348 30.2293Z" stroke="white" stroke-width="3" stroke-miterlimit="10" stroke-linecap="round" stroke-linejoin="round"/>
<path d="M34.5215 34.664C34.5215 32.2157 37.1694 30.2292 40.4345 30.2292C43.6996 30.2292 46.3476 32.2157 46.3476 34.664" stroke="white" stroke-width="3" stroke-miterlimit="10" stroke-linecap="round" stroke-linejoin="round"/>
</svg>
