<svg width="74" height="72" viewBox="0 0 74 72" fill="none" xmlns="http://www.w3.org/2000/svg">
<path d="M17.3 2H2V70H17.3V2Z" stroke="white" stroke-width="3" stroke-miterlimit="10"/>
<path d="M25.8008 8.8V2H34.3008" stroke="white" stroke-width="3" stroke-miterlimit="10"/>
<path d="M71.6992 8.8V2H63.1992" stroke="white" stroke-width="3" stroke-miterlimit="10"/>
<path d="M37.6992 2H42.7992" stroke="white" stroke-width="3" stroke-miterlimit="10"/>
<path d="M46.1992 2H51.2992" stroke="white" stroke-width="3" stroke-miterlimit="10"/>
<path d="M54.6992 2H59.7992" stroke="white" stroke-width="3" stroke-miterlimit="10"/>
<path d="M25.8008 29.2V36H34.3008" stroke="white" stroke-width="3" stroke-miterlimit="10"/>
<path d="M71.6992 29.2V36H63.1992" stroke="white" stroke-width="3" stroke-miterlimit="10"/>
<path d="M37.6992 36H42.7992" stroke="white" stroke-width="3" stroke-miterlimit="10"/>
<path d="M46.1992 36H51.2992" stroke="white" stroke-width="3" stroke-miterlimit="10"/>
<path d="M54.6992 36H59.7992" stroke="white" stroke-width="3" stroke-miterlimit="10"/>
<path d="M25.8008 12.2V17.3" stroke="white" stroke-width="3" stroke-miterlimit="10"/>
<path d="M25.8008 20.7V25.8" stroke="white" stroke-width="3" stroke-miterlimit="10"/>
<path d="M71.6992 12.2V17.3" stroke="white" stroke-width="3" stroke-miterlimit="10"/>
<path d="M71.6992 20.7V25.8" stroke="white" stroke-width="3" stroke-miterlimit="10"/>
<path d="M30.9004 29.2L42.8004 17.3L54.7004 29.2" stroke="white" stroke-width="3" stroke-miterlimit="10" stroke-linejoin="round"/>
<path d="M49.5996 24.1L54.6996 19L66.5996 30.9" stroke="white" stroke-width="3" stroke-miterlimit="10" stroke-linejoin="round"/>
<path d="M58.0996 12.2H61.4996" stroke="white" stroke-width="3" stroke-miterlimit="10" stroke-linejoin="round"/>
<path d="M25.8008 51.3V44.5H34.3008" stroke="white" stroke-width="3" stroke-miterlimit="10"/>
<path d="M71.6992 51.3V44.5H63.1992" stroke="white" stroke-width="3" stroke-miterlimit="10"/>
<path d="M37.6992 44.5H42.7992" stroke="white" stroke-width="3" stroke-miterlimit="10"/>
<path d="M46.1992 44.5H51.2992" stroke="white" stroke-width="3" stroke-miterlimit="10"/>
<path d="M54.6992 44.5H59.7992" stroke="white" stroke-width="3" stroke-miterlimit="10"/>
<path d="M25.8008 63.2V70H34.3008" stroke="white" stroke-width="3" stroke-miterlimit="10"/>
<path d="M71.6992 63.2V70H63.1992" stroke="white" stroke-width="3" stroke-miterlimit="10"/>
<path d="M37.6992 70H42.7992" stroke="white" stroke-width="3" stroke-miterlimit="10"/>
<path d="M46.1992 70H51.2992" stroke="white" stroke-width="3" stroke-miterlimit="10"/>
<path d="M54.6992 70H59.7992" stroke="white" stroke-width="3" stroke-miterlimit="10"/>
<path d="M25.8008 54.7V59.8" stroke="white" stroke-width="3" stroke-miterlimit="10"/>
<path d="M71.6992 54.7V59.8" stroke="white" stroke-width="3" stroke-miterlimit="10"/>
<path d="M34.3008 53H63.2008" stroke="white" stroke-width="3" stroke-miterlimit="10"/>
<path d="M34.3008 59.8H53.0008" stroke="white" stroke-width="3" stroke-miterlimit="10"/>
</svg>
