<svg width="72" height="70" viewBox="0 0 72 70" fill="none" xmlns="http://www.w3.org/2000/svg">
<path d="M15.3875 60.3279C16.057 60.8061 16.7424 61.2524 17.4597 61.6828C26.0514 66.8474 35.1373 67.2937 40.6048 65.4925M4.27725 25.8176C2.61948 32.2733 2.52588 37.8389 4.90096 44.0874M46.5664 40.6419C47.4112 38.729 48.7661 36.9438 50.663 35.557C54.0582 33.0703 60.2589 31.285 63.6542 25.4191C67.5754 18.6126 64.7859 9.8615 53.3569 4.40998C44.7492 0.297434 25.637 0.998798 14.5586 10.0368" stroke="#23262B" stroke-width="3" stroke-miterlimit="10" stroke-linecap="round"/>
<path d="M47.1577 51.5132C45.2608 48.0064 7.88121 13.7352 5.82494 12.4759C4.59755 11.7108 3.2267 11.6629 2.50939 12.3802C1.79209 13.1135 1.83991 14.4843 2.60503 15.6958C3.8643 17.7361 38.1355 55.1316 41.6424 57.0285" stroke="#23262B" stroke-width="3" stroke-miterlimit="10" stroke-linecap="round"/>
<path d="M65.2176 62.5911C59.8936 67.8195 54.2986 68.3933 50.457 67.3731C45.2446 65.9704 43.8419 62.0491 44.6867 58.9249C45.5156 55.8006 48.2254 53.3777 53.0393 54.6689C57.8373 55.96 58.9212 61.9694 65.2176 62.5911Z" stroke="#23262B" stroke-width="3" stroke-miterlimit="10" stroke-linecap="round" stroke-linejoin="round"/>
<path d="M54.0604 25.3395C56.7014 25.3395 58.8424 23.1985 58.8424 20.5574C58.8424 17.9164 56.7014 15.7754 54.0604 15.7754C51.4193 15.7754 49.2783 17.9164 49.2783 20.5574C49.2783 23.1985 51.4193 25.3395 54.0604 25.3395Z" stroke="#23262B" stroke-width="3" stroke-miterlimit="10" stroke-linecap="round"/>
<path d="M41.3055 17.3697C43.9465 17.3697 46.0875 15.2287 46.0875 12.5877C46.0875 9.94665 43.9465 7.80566 41.3055 7.80566C38.6644 7.80566 36.5234 9.94665 36.5234 12.5877C36.5234 15.2287 38.6644 17.3697 41.3055 17.3697Z" stroke="#23262B" stroke-width="3" stroke-miterlimit="10" stroke-linecap="round"/>
<path d="M26.9617 20.5577C29.6028 20.5577 31.7438 18.4167 31.7438 15.7757C31.7438 13.1346 29.6028 10.9937 26.9617 10.9937C24.3207 10.9937 22.1797 13.1346 22.1797 15.7757C22.1797 18.4167 24.3207 20.5577 26.9617 20.5577Z" stroke="#23262B" stroke-width="3" stroke-miterlimit="10" stroke-linecap="round"/>
<path d="M26.9619 49.8765V53.0645" stroke="#23262B" stroke-width="3" stroke-miterlimit="10" stroke-linecap="round"/>
<path d="M26.9619 58.1875V61.3755" stroke="#23262B" stroke-width="3" stroke-miterlimit="10" stroke-linecap="round"/>
<path d="M24.3999 55.626H21.2119" stroke="#23262B" stroke-width="3" stroke-miterlimit="10" stroke-linecap="round"/>
<path d="M32.7115 55.626H29.5234" stroke="#23262B" stroke-width="3" stroke-miterlimit="10" stroke-linecap="round"/>
<path d="M62.0318 47.6558L58.8438 50.8438" stroke="#23262B" stroke-width="3" stroke-miterlimit="10" stroke-linecap="round"/>
<path d="M70.0005 39.6858L66.8125 42.8738" stroke="#23262B" stroke-width="3" stroke-miterlimit="10" stroke-linecap="round"/>
<path d="M66.8125 47.6558L70.0005 50.8438" stroke="#23262B" stroke-width="3" stroke-miterlimit="10" stroke-linecap="round"/>
<path d="M58.8438 39.6858L62.0318 42.8738" stroke="#23262B" stroke-width="3" stroke-miterlimit="10" stroke-linecap="round"/>
<path d="M6.78203 51.574H2" stroke="#23262B" stroke-width="3" stroke-miterlimit="10" stroke-linecap="round"/>
<path d="M17.9383 51.574H13.1562" stroke="#23262B" stroke-width="3" stroke-miterlimit="10" stroke-linecap="round"/>
<path d="M9.96973 54.7617V59.5438" stroke="#23262B" stroke-width="3" stroke-miterlimit="10" stroke-linecap="round"/>
<path d="M9.96973 43.6035V48.3855" stroke="#23262B" stroke-width="3" stroke-miterlimit="10" stroke-linecap="round"/>
</svg>
