<svg width="68" height="70" viewBox="0 0 68 70" fill="none" xmlns="http://www.w3.org/2000/svg">
<path d="M25.1511 65.6596C25.1511 65.6596 25.1511 64.0102 25.1511 62.766C25.1511 61.5217 21.0566 57.977 20.0439 56.3856C19.4073 55.4017 15.0234 42.8434 15.0234 42.8434C15.0234 41.44 18.5681 39.6604 20.883 42.8434L24.6592 48.703L26.5979 46.8511V26.5958C26.5979 25.0043 27.9 23.7021 29.4915 23.7021C31.083 23.7021 32.3851 25.0043 32.3851 26.5958V43.9575V42.5107V35.2766H35.2788C36.1902 35.2766 37.6226 35.8553 38.1724 36.7234H41.066C42.426 36.7234 43.9596 37.9966 43.9596 39.617H46.8532C48.2132 39.617 49.7468 40.8902 49.7468 42.5107V56.9787C49.7468 59.9013 46.8532 62.2596 46.8532 64.2128C46.8532 66.166 46.8532 65.6596 46.8532 65.6596" stroke="#23262B" stroke-width="3" stroke-miterlimit="10"/>
<path d="M38.1719 36.7234V43.9574" stroke="#23262B" stroke-width="3" stroke-miterlimit="10"/>
<path d="M43.957 39.6172V45.4044" stroke="#23262B" stroke-width="3" stroke-miterlimit="10"/>
<path d="M49.7442 70.0001V65.6597H22.2549V70.0001" stroke="#23262B" stroke-width="3" stroke-miterlimit="10"/>
<path d="M21.9805 30.9653C21.2426 29.6776 20.8086 28.1874 20.8086 26.5959C20.8086 21.807 24.7005 17.915 29.4894 17.915C34.2784 17.915 38.1703 21.807 38.1703 26.5959C38.1703 28.2453 37.7073 29.7933 36.9116 31.1099" stroke="#23262B" stroke-width="3" stroke-miterlimit="10"/>
<path d="M15.0213 51.1915H2V2H65.6596V51.1915H52.6383" stroke="#23262B" stroke-width="3" stroke-miterlimit="10"/>
<path d="M2 10.6809H65.6596" stroke="#23262B" stroke-width="3" stroke-miterlimit="10"/>
<path d="M6.34082 6.34033H9.23444" stroke="#23262B" stroke-width="3" stroke-miterlimit="10"/>
<path d="M10.6807 6.34033H13.5743" stroke="#23262B" stroke-width="3" stroke-miterlimit="10"/>
</svg>
