<svg width="72" height="63" viewBox="0 0 72 63" fill="none" xmlns="http://www.w3.org/2000/svg">
<path d="M62.4444 60.9333H2V2H70V53.3778" stroke="#23262B" stroke-width="3" stroke-miterlimit="10" stroke-linecap="round"/>
<path d="M3.51074 11.0667H69.9996" stroke="#23262B" stroke-width="3" stroke-miterlimit="10" stroke-linecap="round"/>
<path d="M6.53125 6.5332H9.55347" stroke="#23262B" stroke-width="3" stroke-miterlimit="10" stroke-linecap="round"/>
<path d="M14.5781 6.5332H17.6003" stroke="#23262B" stroke-width="3" stroke-miterlimit="10" stroke-linecap="round"/>
<path d="M22.6221 6.5332H25.6443" stroke="#23262B" stroke-width="3" stroke-miterlimit="10" stroke-linecap="round"/>
<path d="M51.8662 38.2666V44.311" stroke="#23262B" stroke-width="3" stroke-miterlimit="10" stroke-linecap="round"/>
<path d="M23.1553 32.2222V44.3111" stroke="#23262B" stroke-width="3" stroke-miterlimit="10" stroke-linecap="round"/>
<path d="M17.1094 36.7556V44.3112" stroke="#23262B" stroke-width="3" stroke-miterlimit="10" stroke-linecap="round"/>
<path d="M11.0664 27.689V44.3112" stroke="#23262B" stroke-width="3" stroke-miterlimit="10" stroke-linecap="round"/>
<path d="M45.8203 27.689V44.3112" stroke="#23262B" stroke-width="3" stroke-miterlimit="10" stroke-linecap="round"/>
<path d="M39.7773 32.2222V44.3111" stroke="#23262B" stroke-width="3" stroke-miterlimit="10" stroke-linecap="round"/>
<path d="M45.8224 53.3777C55.0026 53.3777 62.4446 45.9357 62.4446 36.7555C62.4446 27.5753 55.0026 20.1333 45.8224 20.1333C36.6422 20.1333 29.2002 27.5753 29.2002 36.7555C29.2002 45.9357 36.6422 53.3777 45.8224 53.3777Z" stroke="#23262B" stroke-width="3" stroke-miterlimit="10" stroke-linecap="round"/>
<path d="M57.9111 48.8445L70 60.9334" stroke="#23262B" stroke-width="3" stroke-miterlimit="10" stroke-linecap="round"/>
</svg>
