<svg width="74" height="69" viewBox="0 0 74 69" fill="none" xmlns="http://www.w3.org/2000/svg">
<path d="M71.9993 17.5557H34.666V45.5557H71.9993V17.5557Z" stroke="#23262B" stroke-width="3" stroke-miterlimit="10" stroke-linecap="round" stroke-linejoin="round"/>
<path d="M34.666 40.8888L47.1105 28.4443L57.9993 39.3332" stroke="#23262B" stroke-width="3" stroke-miterlimit="10" stroke-linecap="round" stroke-linejoin="round"/>
<path d="M53.332 34.6667L57.9987 30L71.9987 44" stroke="#23262B" stroke-width="3" stroke-miterlimit="10" stroke-linecap="round" stroke-linejoin="round"/>
<path d="M61.1084 25.3335H64.2195" stroke="#23262B" stroke-width="3" stroke-miterlimit="10" stroke-linecap="round" stroke-linejoin="round"/>
<path d="M42.4435 48.6667V67.3334H1.99902V37.7778H31.5546" stroke="#23262B" stroke-width="3" stroke-miterlimit="10" stroke-linecap="round" stroke-linejoin="round"/>
<path d="M43.9987 14.4444V2H11.332V34.6667" stroke="#23262B" stroke-width="3" stroke-miterlimit="10" stroke-linecap="round" stroke-linejoin="round"/>
<path d="M15.9986 57.9998L9.77637 53.3332L15.9986 48.6665" stroke="#23262B" stroke-width="3" stroke-miterlimit="10" stroke-linecap="round" stroke-linejoin="round"/>
<path d="M28.4434 57.9998L34.6656 53.3332L28.4434 48.6665" stroke="#23262B" stroke-width="3" stroke-miterlimit="10" stroke-linecap="round" stroke-linejoin="round"/>
<path d="M25.3306 45.5557L19.1084 61.1112" stroke="#23262B" stroke-width="3" stroke-miterlimit="10" stroke-linecap="round" stroke-linejoin="round"/>
<path d="M19.1084 11.3335H36.2195" stroke="#23262B" stroke-width="3" stroke-miterlimit="10" stroke-linecap="round" stroke-linejoin="round"/>
<path d="M19.1084 17.5557H29.9973" stroke="#23262B" stroke-width="3" stroke-miterlimit="10" stroke-linecap="round" stroke-linejoin="round"/>
<path d="M19.1084 23.7778H29.9973" stroke="#23262B" stroke-width="3" stroke-miterlimit="10" stroke-linecap="round" stroke-linejoin="round"/>
<path d="M19.1084 30H29.9973" stroke="#23262B" stroke-width="3" stroke-miterlimit="10" stroke-linecap="round" stroke-linejoin="round"/>
</svg>
