<svg width="55" height="72" viewBox="0 0 55 72" fill="none" xmlns="http://www.w3.org/2000/svg">
<path d="M25.1494 36.7234V56.9787" stroke="#23262B" stroke-width="3" stroke-miterlimit="10" stroke-linecap="round"/>
<path d="M30.9365 32.3828V49.7445" stroke="#23262B" stroke-width="3" stroke-miterlimit="10" stroke-linecap="round"/>
<path d="M35.175 38.503L39.6167 39.617V32.383L33.8295 26.5957C33.8295 26.5957 33.8295 13.9362 33.8295 12.1277C33.8295 10.3191 32.1367 4.64766 28.0422 2C23.9478 4.64766 22.255 10.3191 22.255 12.1277C22.255 13.9362 22.255 26.5957 22.255 26.5957L16.4678 32.383V39.617L20.8805 38.5174" stroke="#23262B" stroke-width="3" stroke-miterlimit="10" stroke-linecap="round" stroke-linejoin="round"/>
<path d="M28.043 12.1277V15.0213" stroke="#23262B" stroke-width="3" stroke-miterlimit="10" stroke-linecap="round"/>
<path d="M2.41957 68.553C2.14468 67.6415 2 66.6577 2 65.6594C2 60.0602 6.52851 55.5317 12.1277 55.5317C14.2834 55.5317 16.2655 56.1973 17.9149 57.3402" stroke="#23262B" stroke-width="3" stroke-miterlimit="10" stroke-linecap="round"/>
<path d="M10.8109 55.6188C10.7241 55.1269 10.6807 54.606 10.6807 54.0851C10.6807 49.2962 14.5726 45.4043 19.3615 45.4043" stroke="#23262B" stroke-width="3" stroke-miterlimit="10" stroke-linecap="round"/>
<path d="M36.7236 54.389V43.9575" stroke="#23262B" stroke-width="3" stroke-miterlimit="10" stroke-linecap="round"/>
<path d="M40.4414 64.7338C41.7435 63.5185 43.4797 62.7661 45.404 62.7661C49.3972 62.7661 52.638 66.007 52.638 70.0002" stroke="#23262B" stroke-width="3" stroke-miterlimit="10" stroke-linecap="round"/>
<path d="M31.8047 58.4254C33.1213 55.8501 35.7979 54.085 38.894 54.085C43.2923 54.085 46.8515 57.6441 46.8515 62.0424C46.8515 62.3318 46.837 62.6211 46.8081 62.9105" stroke="#23262B" stroke-width="3" stroke-miterlimit="10" stroke-linecap="round"/>
</svg>
