<svg width="72" height="72" viewBox="0 0 72 72" fill="none" xmlns="http://www.w3.org/2000/svg">
<path d="M36 2V15.3043" stroke="#23262B" stroke-width="3" stroke-miterlimit="10" stroke-linecap="round" stroke-linejoin="round"/>
<path d="M12.3477 12.3477L21.365 21.365" stroke="#23262B" stroke-width="3" stroke-miterlimit="10" stroke-linecap="round" stroke-linejoin="round"/>
<path d="M2 36H15.3043" stroke="#23262B" stroke-width="3" stroke-miterlimit="10" stroke-linecap="round" stroke-linejoin="round"/>
<path d="M12.3477 59.6522L21.365 50.6348" stroke="#23262B" stroke-width="3" stroke-miterlimit="10" stroke-linecap="round" stroke-linejoin="round"/>
<path d="M59.6502 59.6522L50.6328 50.6348" stroke="#23262B" stroke-width="3" stroke-miterlimit="10" stroke-linecap="round" stroke-linejoin="round"/>
<path d="M69.9997 36H56.6953" stroke="#23262B" stroke-width="3" stroke-miterlimit="10" stroke-linecap="round" stroke-linejoin="round"/>
<path d="M59.6502 12.3477L50.6328 21.365" stroke="#23262B" stroke-width="3" stroke-miterlimit="10" stroke-linecap="round" stroke-linejoin="round"/>
<path d="M41.913 68.5217H40.4347L38.9565 70H36H33.0434L31.5652 68.5217H30.0869" stroke="#23262B" stroke-width="3" stroke-miterlimit="10" stroke-linecap="round" stroke-linejoin="round"/>
<path d="M27.1328 59.6523H44.8719" stroke="#23262B" stroke-width="3" stroke-miterlimit="10" stroke-linecap="round" stroke-linejoin="round"/>
<path d="M28.6084 64.0869H43.391" stroke="#23262B" stroke-width="3" stroke-miterlimit="10" stroke-linecap="round" stroke-linejoin="round"/>
<path d="M43.3917 56.6955V53.739C43.3917 51.0634 44.323 48.6095 46.1708 46.7173C48.9647 43.8642 50.783 40.346 50.783 35.9999C50.783 27.8399 44.1604 21.2173 36.0004 21.2173C27.8404 21.2173 21.2178 27.8399 21.2178 35.9999C21.2178 40.346 23.036 43.8642 25.8299 46.7173C27.6778 48.6095 28.6091 51.0634 28.6091 53.739V56.6955" stroke="#23262B" stroke-width="3" stroke-miterlimit="10" stroke-linecap="round" stroke-linejoin="round"/>
<path d="M25.8125 11.4167L28.0742 16.8863" stroke="#23262B" stroke-width="3" stroke-miterlimit="10" stroke-linecap="round" stroke-linejoin="round"/>
<path d="M11.417 25.8145L16.8866 28.0762" stroke="#23262B" stroke-width="3" stroke-miterlimit="10" stroke-linecap="round" stroke-linejoin="round"/>
<path d="M11.417 46.1851L16.8866 43.9233" stroke="#23262B" stroke-width="3" stroke-miterlimit="10" stroke-linecap="round" stroke-linejoin="round"/>
<path d="M60.5838 46.1851L55.1143 43.9233" stroke="#23262B" stroke-width="3" stroke-miterlimit="10" stroke-linecap="round" stroke-linejoin="round"/>
<path d="M60.5838 25.8145L55.1143 28.0762" stroke="#23262B" stroke-width="3" stroke-miterlimit="10" stroke-linecap="round" stroke-linejoin="round"/>
<path d="M46.1846 11.4167L43.9229 16.8863" stroke="#23262B" stroke-width="3" stroke-miterlimit="10" stroke-linecap="round" stroke-linejoin="round"/>
<path d="M31.5654 40.4348L36.0002 43.3913L40.435 40.4348" stroke="#23262B" stroke-width="3" stroke-miterlimit="10" stroke-linecap="round"/>
<path d="M36 43.3914V56.6957" stroke="#23262B" stroke-width="3" stroke-miterlimit="10" stroke-linecap="round"/>
</svg>
