<svg width="72" height="67" viewBox="0 0 72 67" fill="none" xmlns="http://www.w3.org/2000/svg">
<path d="M32.5752 18.4668H44.551" stroke="#23262B" stroke-width="3" stroke-miterlimit="10" stroke-linecap="round"/>
<path d="M36.5635 25.9517H41.0544" stroke="#23262B" stroke-width="3" stroke-miterlimit="10" stroke-linecap="round"/>
<path d="M46.0479 25.9517H64.0115" stroke="#23262B" stroke-width="3" stroke-miterlimit="10" stroke-linecap="round"/>
<path d="M38.5635 33.4365H52.0362" stroke="#23262B" stroke-width="3" stroke-miterlimit="10" stroke-linecap="round"/>
<path d="M57.0312 33.4365H63.0191" stroke="#23262B" stroke-width="3" stroke-miterlimit="10" stroke-linecap="round"/>
<path d="M38.5635 48.4062H43.0544" stroke="#23262B" stroke-width="3" stroke-miterlimit="10" stroke-linecap="round"/>
<path d="M48.0469 48.4062H54.0348" stroke="#23262B" stroke-width="3" stroke-miterlimit="10" stroke-linecap="round"/>
<path d="M38.5635 55.8911H52.0362" stroke="#23262B" stroke-width="3" stroke-miterlimit="10" stroke-linecap="round"/>
<path d="M32.5752 40.9214H46.048" stroke="#23262B" stroke-width="3" stroke-miterlimit="10" stroke-linecap="round"/>
<path d="M8.33962 22.7629L30.8092 45.2923L33.0996 53.5856L24.8213 51.2802L2.33675 28.7657C1.75293 28.1819 1.94754 27.0293 2.77088 26.2059L5.76482 23.212C6.60313 22.3737 7.7558 22.1791 8.33962 22.7629Z" stroke="#23262B" stroke-width="3" stroke-miterlimit="10" stroke-linecap="round" stroke-linejoin="round"/>
<path d="M5.50781 31.9396L11.5107 25.9517" stroke="#23262B" stroke-width="3" stroke-miterlimit="10" stroke-linecap="round" stroke-linejoin="round"/>
<path d="M16.1084 48.4062V63.3759C16.1084 64.1993 16.782 64.8729 17.6054 64.8729H68.5025C69.3258 64.8729 69.9995 64.1993 69.9995 63.3759V3.49697C69.9995 2.67364 69.3258 2 68.5025 2H17.6054C16.782 2 16.1084 2.67364 16.1084 3.49697V24.3648" stroke="#23262B" stroke-width="3" stroke-miterlimit="10" stroke-linecap="round" stroke-linejoin="round"/>
<path d="M17.0049 11L69.0049 11" stroke="#23262B" stroke-width="3" stroke-miterlimit="10" stroke-linecap="round" stroke-linejoin="round"/>
<path d="M22.6016 6.49072H25.5955" stroke="#23262B" stroke-width="3" stroke-miterlimit="10" stroke-linecap="round" stroke-linejoin="round"/>
<path d="M30.0898 6.49072H33.0838" stroke="#23262B" stroke-width="3" stroke-miterlimit="10" stroke-linecap="round" stroke-linejoin="round"/>
</svg>
