<svg width="80" height="80" viewBox="0 0 80 80" fill="none" xmlns="http://www.w3.org/2000/svg">
<path d="M25 8C22.2505 8 20 10.2505 20 13V67C20 69.7495 22.2505 72 25 72H55C57.7495 72 60 69.7495 60 67V54H58V60H22V18H58V25H60V13C60 10.2505 57.7495 8 55 8H25ZM25 10H55C56.6685 10 58 11.3315 58 13V16H22V13C22 11.3315 23.3315 10 25 10ZM31.9473 12C31.682 12 31.4277 12.1054 31.2402 12.2929C31.0526 12.4804 30.9473 12.7348 30.9473 13C30.9473 13.2652 31.0526 13.5196 31.2402 13.7071C31.4277 13.8946 31.682 14 31.9473 14C32.2125 14 32.4668 13.8946 32.6544 13.7071C32.8419 13.5196 32.9473 13.2652 32.9473 13C32.9473 12.7348 32.8419 12.4804 32.6544 12.2929C32.4668 12.1054 32.2125 12 31.9473 12V12ZM36 12C35.8675 11.9981 35.7359 12.0226 35.613 12.072C35.49 12.1214 35.3781 12.1948 35.2837 12.2878C35.1893 12.3809 35.1144 12.4918 35.0632 12.614C35.0121 12.7363 34.9858 12.8675 34.9858 13C34.9858 13.1325 35.0121 13.2637 35.0632 13.386C35.1144 13.5082 35.1893 13.6191 35.2837 13.7122C35.3781 13.8052 35.49 13.8786 35.613 13.928C35.7359 13.9774 35.8675 14.0019 36 14H44C44.1325 14.0019 44.2641 13.9774 44.387 13.928C44.51 13.8786 44.6219 13.8052 44.7163 13.7122C44.8107 13.6191 44.8856 13.5082 44.9368 13.386C44.9879 13.2637 45.0142 13.1325 45.0142 13C45.0142 12.8675 44.9879 12.7363 44.9368 12.614C44.8856 12.4918 44.8107 12.3809 44.7163 12.2878C44.6219 12.1948 44.51 12.1214 44.387 12.072C44.2641 12.0226 44.1325 11.9981 44 12H36ZM70.5059 17.9883C70.25 17.9883 69.9943 18.0857 69.7988 18.2812C69.4078 18.6723 69.4078 19.3053 69.7988 19.6953C70.1898 20.0863 70.8229 20.0863 71.2129 19.6953C71.6029 19.3043 71.6039 18.6712 71.2129 18.2812C71.0179 18.0857 70.7617 17.9883 70.5059 17.9883ZM26 20C25.7348 20 25.4804 20.1054 25.2929 20.2929C25.1054 20.4804 25 20.7348 25 21C25 21.2652 25.1054 21.5196 25.2929 21.7071C25.4804 21.8946 25.7348 22 26 22C26.2652 22 26.5196 21.8946 26.7071 21.7071C26.8946 21.5196 27 21.2652 27 21C27 20.7348 26.8946 20.4804 26.7071 20.2929C26.5196 20.1054 26.2652 20 26 20ZM73.1367 20.8477C72.8831 20.8142 72.6179 20.8784 72.3984 21.0469C71.9604 21.3829 71.8769 22.0112 72.2129 22.4492C72.5489 22.8872 73.1772 22.9708 73.6152 22.6348C74.0532 22.2988 74.1368 21.6704 73.8008 21.2324C73.6328 21.0129 73.3903 20.8812 73.1367 20.8477ZM64.8496 23.6445C64.5844 23.6445 64.33 23.7499 64.1425 23.9374C63.955 24.125 63.8496 24.3793 63.8496 24.6445C63.8496 24.9097 63.955 25.1641 64.1425 25.3516C64.33 25.5392 64.5844 25.6445 64.8496 25.6445C65.1148 25.6445 65.3692 25.5392 65.5567 25.3516C65.7443 25.1641 65.8496 24.9097 65.8496 24.6445C65.8496 24.3793 65.7443 24.125 65.5567 23.9374C65.3692 23.7499 65.1148 23.6445 64.8496 23.6445ZM26 24C25.7348 24 25.4804 24.1054 25.2929 24.2929C25.1054 24.4804 25 24.7348 25 25C25 25.2652 25.1054 25.5196 25.2929 25.7071C25.4804 25.8946 25.7348 26 26 26C26.2652 26 26.5196 25.8946 26.7071 25.7071C26.8946 25.5196 27 25.2652 27 25C27 24.7348 26.8946 24.4804 26.7071 24.2929C26.5196 24.1054 26.2652 24 26 24ZM74.9922 24.002C74.8633 24.0179 74.7347 24.0599 74.6152 24.1289C74.1372 24.4049 73.972 25.0161 74.248 25.4941C74.524 25.9721 75.1362 26.1354 75.6152 25.8594C76.0932 25.5834 76.2565 24.9721 75.9805 24.4941C75.7735 24.1356 75.3789 23.954 74.9922 24.002ZM67.4648 26.8242C67.1996 26.8242 66.9453 26.9296 66.7577 27.1171C66.5702 27.3046 66.4648 27.559 66.4648 27.8242C66.4648 28.0894 66.5702 28.3438 66.7577 28.5313C66.9453 28.7189 67.1996 28.8242 67.4648 28.8242C67.7301 28.8242 67.9844 28.7189 68.172 28.5313C68.3595 28.3438 68.4648 28.0894 68.4648 27.8242C68.4648 27.559 68.3595 27.3046 68.172 27.1171C67.9844 26.9296 67.7301 26.8242 67.4648 26.8242ZM76.8008 27.3945C76.6708 27.3936 76.5379 27.4197 76.4102 27.4727C75.9002 27.6847 75.6571 28.2693 75.8691 28.7793C76.0801 29.2893 76.6648 29.5323 77.1758 29.3203C77.6868 29.1083 77.9288 28.5247 77.7168 28.0137C77.5585 27.6312 77.1908 27.3973 76.8008 27.3945ZM26 28C25.7348 28 25.4804 28.1054 25.2929 28.2929C25.1054 28.4804 25 28.7348 25 29C25 29.2652 25.1054 29.5196 25.2929 29.7071C25.4804 29.8946 25.7348 30 26 30C26.2652 30 26.5196 29.8946 26.7071 29.7071C26.8946 29.5196 27 29.2652 27 29C27 28.7348 26.8946 28.4804 26.7071 28.2929C26.5196 28.1054 26.2652 28 26 28ZM59.1914 29.3008C58.9355 29.3008 58.6799 29.3988 58.4844 29.5938C58.0934 29.9848 58.0934 30.6178 58.4844 31.0078C58.8754 31.3988 59.5084 31.3988 59.8984 31.0078C60.2894 30.6168 60.2894 29.9837 59.8984 29.5938C59.7034 29.3988 59.4473 29.3008 59.1914 29.3008ZM69.4023 30.457C69.1371 30.457 68.8828 30.5624 68.6952 30.7499C68.5077 30.9375 68.4023 31.1918 68.4023 31.457C68.4023 31.7222 68.5077 31.9766 68.6952 32.1641C68.8828 32.3517 69.1371 32.457 69.4023 32.457C69.6676 32.457 69.9219 32.3517 70.1095 32.1641C70.297 31.9766 70.4023 31.7222 70.4023 31.457C70.4023 31.1918 70.297 30.9375 70.1095 30.7499C69.9219 30.5624 69.6676 30.457 69.4023 30.457ZM78.1504 30.9961C78.0217 30.9782 77.8874 30.9857 77.7539 31.0215C77.2209 31.1645 76.9039 31.7131 77.0469 32.2461C77.1899 32.7791 77.7375 33.0961 78.2715 32.9531C78.8045 32.8101 79.1215 32.2625 78.9785 31.7285C78.8713 31.328 78.5365 31.0497 78.1504 30.9961ZM26 32C25.7348 32 25.4804 32.1054 25.2929 32.2929C25.1054 32.4804 25 32.7348 25 33C25 33.2652 25.1054 33.5196 25.2929 33.7071C25.4804 33.8946 25.7348 34 26 34C26.2652 34 26.5196 33.8946 26.7071 33.7071C26.8946 33.5196 27 33.2652 27 33C27 32.7348 26.8946 32.4804 26.7071 32.2929C26.5196 32.1054 26.2652 32 26 32V32ZM61.1348 32.002C61.0059 32.0179 60.8773 32.0599 60.7578 32.1289C60.2798 32.4049 60.1166 33.0161 60.3926 33.4941C60.6686 33.9721 61.2798 34.1354 61.7578 33.8594C62.2358 33.5834 62.399 32.9721 62.123 32.4941C61.916 32.1356 61.5215 31.954 61.1348 32.002ZM70.5977 34.3984C70.3324 34.3984 70.0781 34.5038 69.8905 34.6913C69.703 34.8789 69.5977 35.1332 69.5977 35.3984C69.5977 35.6637 69.703 35.918 69.8905 36.1055C70.0781 36.2931 70.3324 36.3984 70.5977 36.3984C70.8629 36.3984 71.1172 36.2931 71.3048 36.1055C71.4923 35.918 71.5977 35.6637 71.5977 35.3984C71.5977 35.1332 71.4923 34.8789 71.3048 34.6913C71.1172 34.5038 70.8629 34.3984 70.5977 34.3984ZM78.6211 34.7168C78.0741 34.7888 77.6878 35.2928 77.7598 35.8398C77.8318 36.3878 78.3348 36.7712 78.8828 36.6992C79.4308 36.6272 79.8142 36.1261 79.7422 35.5781C79.6702 35.0301 79.1691 34.6448 78.6211 34.7168ZM62.6953 35.1387C62.5666 35.1208 62.4323 35.1264 62.2988 35.1621C61.7658 35.3051 61.4488 35.8557 61.5918 36.3887C61.7348 36.9227 62.2824 37.2387 62.8164 37.0957C63.3504 36.9527 63.6664 36.4031 63.5234 35.8691C63.4162 35.4686 63.0814 35.1922 62.6953 35.1387ZM26 36C25.7348 36 25.4804 36.1054 25.2929 36.2929C25.1054 36.4804 25 36.7348 25 37C25 37.2652 25.1054 37.5196 25.2929 37.7071C25.4804 37.8946 25.7348 38 26 38C26.2652 38 26.5196 37.8946 26.7071 37.7071C26.8946 37.5196 27 37.2652 27 37C27 36.7348 26.8946 36.4804 26.7071 36.2929C26.5196 36.1054 26.2652 36 26 36ZM63 38.4941C62.448 38.4941 62 38.9421 62 39.4941C62 40.0461 62.448 40.4941 63 40.4941C63.552 40.4941 64 40.0461 64 39.4941C64 38.9421 63.552 38.4941 63 38.4941ZM71 38.4941C70.7348 38.4941 70.4804 38.5995 70.2929 38.787C70.1054 38.9746 70 39.2289 70 39.4941C70 39.7594 70.1054 40.0137 70.2929 40.2012C70.4804 40.3888 70.7348 40.4941 71 40.4941C71.2652 40.4941 71.5196 40.3888 71.7071 40.2012C71.8946 40.0137 72 39.7594 72 39.4941C72 39.2289 71.8946 38.9746 71.7071 38.787C71.5196 38.5995 71.2652 38.4941 71 38.4941ZM79 38.4941C78.448 38.4941 78 38.9421 78 39.4941C78 40.0461 78.448 40.4941 79 40.4941C79.552 40.4941 80 40.0461 80 39.4941C80 38.9421 79.552 38.4941 79 38.4941ZM26 40C25.7348 40 25.4804 40.1054 25.2929 40.2929C25.1054 40.4804 25 40.7348 25 41C25 41.2652 25.1054 41.5196 25.2929 41.7071C25.4804 41.8946 25.7348 42 26 42C26.2652 42 26.5196 41.8946 26.7071 41.7071C26.8946 41.5196 27 41.2652 27 41C27 40.7348 26.8946 40.4804 26.7071 40.2929C26.5196 40.1054 26.2652 40 26 40ZM62.4199 41.8691C62.0338 41.923 61.699 42.1999 61.5918 42.5996C61.4488 43.1326 61.7658 43.6812 62.2988 43.8242C62.8318 43.9672 63.3804 43.6502 63.5234 43.1172C63.6664 42.5832 63.3494 42.0356 62.8164 41.8926C62.6829 41.8568 62.5486 41.8512 62.4199 41.8691ZM78.8828 42.2871C78.3348 42.2151 77.8318 42.6004 77.7598 43.1484C77.6878 43.6964 78.0731 44.1995 78.6211 44.2715C79.1691 44.3435 79.6702 43.9582 79.7422 43.4102C79.8142 42.8622 79.4308 42.3591 78.8828 42.2871ZM70.5996 42.5918C70.3344 42.5918 70.08 42.6972 69.8925 42.8847C69.705 43.0722 69.5996 43.3266 69.5996 43.5918C69.5996 43.857 69.705 44.1114 69.8925 44.2989C70.08 44.4864 70.3344 44.5918 70.5996 44.5918C70.8648 44.5918 71.1192 44.4864 71.3067 44.2989C71.4943 44.1114 71.5996 43.857 71.5996 43.5918C71.5996 43.3266 71.4943 43.0722 71.3067 42.8847C71.1192 42.6972 70.8648 42.5918 70.5996 42.5918ZM26 44C25.7348 44 25.4804 44.1054 25.2929 44.2929C25.1054 44.4804 25 44.7348 25 45C25 45.2652 25.1054 45.5196 25.2929 45.7071C25.4804 45.8946 25.7348 46 26 46C26.2652 46 26.5196 45.8946 26.7071 45.7071C26.8946 45.5196 27 45.2652 27 45C27 44.7348 26.8946 44.4804 26.7071 44.2929C26.5196 44.1054 26.2652 44 26 44ZM61.3809 45.002C60.9941 44.954 60.5996 45.1356 60.3926 45.4941C60.1166 45.9721 60.2798 46.5834 60.7578 46.8594C61.2358 47.1354 61.847 46.9721 62.123 46.4941C62.4 46.0161 62.2368 45.4049 61.7578 45.1289C61.6383 45.0599 61.5098 45.0179 61.3809 45.002ZM77.875 46.0098C77.4889 46.0636 77.1541 46.3405 77.0469 46.7402C76.9039 47.2732 77.2209 47.8238 77.7539 47.9668C78.2869 48.1098 78.8355 47.7928 78.9785 47.2598C79.1215 46.7258 78.8045 46.1762 78.2715 46.0332C78.138 45.9975 78.0037 45.9918 77.875 46.0098ZM69.4023 46.5293C69.1371 46.5293 68.8828 46.6347 68.6952 46.8222C68.5077 47.0097 68.4023 47.2641 68.4023 47.5293C68.4023 47.7945 68.5077 48.0489 68.6952 48.2364C68.8828 48.4239 69.1371 48.5293 69.4023 48.5293C69.6676 48.5293 69.9219 48.4239 70.1095 48.2364C70.297 48.0489 70.4023 47.7945 70.4023 47.5293C70.4023 47.2641 70.297 47.0097 70.1095 46.8222C69.9219 46.6347 69.6676 46.5293 69.4023 46.5293ZM59.1914 47.6855C58.9355 47.6855 58.6799 47.7835 58.4844 47.9785C58.0934 48.3695 58.0934 49.0026 58.4844 49.3926C58.8754 49.7836 59.5084 49.7836 59.8984 49.3926C60.2894 49.0016 60.2894 48.3685 59.8984 47.9785C59.7034 47.7835 59.4473 47.6855 59.1914 47.6855ZM26 48C25.7348 48 25.4804 48.1054 25.2929 48.2929C25.1054 48.4804 25 48.7348 25 49C25 49.2652 25.1054 49.5196 25.2929 49.7071C25.4804 49.8946 25.7348 50 26 50C26.2652 50 26.5196 49.8946 26.7071 49.7071C26.8946 49.5196 27 49.2652 27 49C27 48.7348 26.8946 48.4804 26.7071 48.2929C26.5196 48.1054 26.2652 48 26 48ZM76.7852 49.5918C76.3955 49.5947 76.0262 49.8265 75.8672 50.209C75.6562 50.719 75.8982 51.3036 76.4082 51.5156C76.9182 51.7266 77.5048 51.4846 77.7168 50.9746C77.9288 50.4636 77.6858 49.879 77.1758 49.668C77.0483 49.6152 76.915 49.5908 76.7852 49.5918ZM67.4648 50.1602C67.1996 50.1602 66.9453 50.2655 66.7577 50.453C66.5702 50.6406 66.4648 50.8949 66.4648 51.1602C66.4648 51.4254 66.5702 51.6797 66.7577 51.8673C66.9453 52.0548 67.1996 52.1602 67.4648 52.1602C67.7301 52.1602 67.9844 52.0548 68.172 51.8673C68.3595 51.6797 68.4648 51.4254 68.4648 51.1602C68.4648 50.8949 68.3595 50.6406 68.172 50.453C67.9844 50.2655 67.7301 50.1602 67.4648 50.1602ZM26 52C25.7348 52 25.4804 52.1054 25.2929 52.2929C25.1054 52.4804 25 52.7348 25 53C25 53.2652 25.1054 53.5196 25.2929 53.7071C25.4804 53.8946 25.7348 54 26 54C26.2652 54 26.5196 53.8946 26.7071 53.7071C26.8946 53.5196 27 53.2652 27 53C27 52.7348 26.8946 52.4804 26.7071 52.2929C26.5196 52.1054 26.2652 52 26 52ZM75.2383 53.002C74.8516 52.954 74.455 53.1356 74.248 53.4941C73.972 53.9721 74.1372 54.5834 74.6152 54.8594C75.0932 55.1354 75.7045 54.9721 75.9805 54.4941C76.2565 54.0161 76.0932 53.4049 75.6152 53.1289C75.4957 53.0599 75.3672 53.0179 75.2383 53.002ZM64.8477 53.3438C64.5824 53.3438 64.3281 53.4491 64.1405 53.6366C63.953 53.8242 63.8477 54.0785 63.8477 54.3438C63.8477 54.609 63.953 54.8633 64.1405 55.0509C64.3281 55.2384 64.5824 55.3438 64.8477 55.3438C65.1129 55.3438 65.3672 55.2384 65.5548 55.0509C65.7423 54.8633 65.8477 54.609 65.8477 54.3438C65.8477 54.0785 65.7423 53.8242 65.5548 53.6366C65.3672 53.4491 65.1129 53.3438 64.8477 53.3438ZM26 56C25.7348 56 25.4804 56.1054 25.2929 56.2929C25.1054 56.4804 25 56.7348 25 57C25 57.2652 25.1054 57.5196 25.2929 57.7071C25.4804 57.8946 25.7348 58 26 58C26.2652 58 26.5196 57.8946 26.7071 57.7071C26.8946 57.5196 27 57.2652 27 57C27 56.7348 26.8946 56.4804 26.7071 56.2929C26.5196 56.1054 26.2652 56 26 56ZM72.877 56.1562C72.6232 56.1898 72.3828 56.3201 72.2148 56.5391C71.8788 56.9771 71.9594 57.6054 72.3984 57.9414C72.8364 58.2774 73.4648 58.1949 73.8008 57.7559C74.1368 57.3169 74.0542 56.6895 73.6152 56.3535C73.3962 56.1855 73.1307 56.1227 72.877 56.1562ZM70.5059 59C70.25 59 69.9943 59.0975 69.7988 59.293C69.4078 59.684 69.4078 60.317 69.7988 60.707C70.1898 61.098 70.8229 61.098 71.2129 60.707C71.6029 60.316 71.6039 59.683 71.2129 59.293C71.0179 59.0975 70.7617 59 70.5059 59ZM22 62H58V67C58 68.6685 56.6685 70 55 70H25C23.3315 70 22 68.6685 22 67V62ZM40 64C39.4696 64 38.9609 64.2107 38.5858 64.5858C38.2107 64.9609 38 65.4696 38 66C38 66.5304 38.2107 67.0391 38.5858 67.4142C38.9609 67.7893 39.4696 68 40 68C40.5304 68 41.0391 67.7893 41.4142 67.4142C41.7893 67.0391 42 66.5304 42 66C42 65.4696 41.7893 64.9609 41.4142 64.5858C41.0391 64.2107 40.5304 64 40 64V64Z" fill="black"/>
</svg>
