<svg width="80" height="80" viewBox="0 0 80 80" fill="none" xmlns="http://www.w3.org/2000/svg">
<path d="M40 7C31.4018 7 23.567 10.3003 17.6934 15.6934L15 13L13 22L22 20L19.1094 17.1094C24.6213 12.0754 31.9426 9 40 9C57.1326 9 71 22.8674 71 40C71 57.1326 57.1326 71 40 71C22.8674 71 9 57.1326 9 40C9 36.8338 9.47314 33.7827 10.3535 30.9082C10.3947 30.7819 10.4104 30.6486 10.3995 30.5162C10.3887 30.3838 10.3516 30.2549 10.2903 30.137C10.2291 30.0191 10.145 29.9145 10.0429 29.8295C9.94082 29.7445 9.82282 29.6806 9.69579 29.6417C9.56876 29.6028 9.43525 29.5895 9.30305 29.6028C9.17085 29.616 9.04262 29.6555 8.92584 29.7189C8.80906 29.7822 8.70607 29.8682 8.6229 29.9718C8.53972 30.0754 8.47802 30.1946 8.44141 30.3223C7.50378 33.3837 7 36.6342 7 40C7 58.2134 21.7866 73 40 73C58.2134 73 73 58.2134 73 40C73 21.7866 58.2134 7 40 7ZM40 11C39.4696 11 38.9609 11.2107 38.5858 11.5858C38.2107 11.9609 38 12.4696 38 13C38 13.5304 38.2107 14.0391 38.5858 14.4142C38.9609 14.7893 39.4696 15 40 15C40.5304 15 41.0391 14.7893 41.4142 14.4142C41.7893 14.0391 42 13.5304 42 13C42 12.4696 41.7893 11.9609 41.4142 11.5858C41.0391 11.2107 40.5304 11 40 11ZM33.0195 12.9199C32.9961 12.9197 32.9726 12.9204 32.9492 12.9219C32.8825 12.9263 32.8164 12.9374 32.752 12.9551C32.4958 13.0237 32.2774 13.1913 32.1449 13.421C32.0123 13.6506 31.9763 13.9235 32.0449 14.1797C32.1136 14.4358 32.2812 14.6542 32.5108 14.7868C32.7405 14.9194 33.0134 14.9553 33.2695 14.8867C33.5257 14.8181 33.744 14.6505 33.8766 14.4208C34.0092 14.1912 34.0452 13.9183 33.9766 13.6621C33.9202 13.4508 33.796 13.2637 33.6232 13.1297C33.4503 12.9956 33.2383 12.9219 33.0195 12.9199ZM46.9785 12.9219C46.7598 12.9239 46.5477 12.9976 46.3749 13.1316C46.202 13.2657 46.0779 13.4527 46.0215 13.6641C45.9529 13.9202 45.9888 14.1931 46.1214 14.4228C46.254 14.6524 46.4724 14.82 46.7285 14.8887C46.9847 14.9573 47.2576 14.9213 47.4872 14.7887C47.7169 14.6562 47.8845 14.4378 47.9531 14.1816C47.9874 14.0547 47.9963 13.9222 47.9793 13.7918C47.9623 13.6614 47.9197 13.5356 47.854 13.4217C47.7884 13.3078 47.7009 13.2079 47.5965 13.1278C47.4922 13.0478 47.3731 12.9891 47.2461 12.9551C47.1588 12.932 47.0688 12.9208 46.9785 12.9219V12.9219ZM26.4746 15.6172C26.307 15.6214 26.1431 15.6678 25.998 15.752C25.7687 15.8847 25.6014 16.103 25.533 16.359C25.4645 16.615 25.5004 16.8877 25.6328 17.1172C25.7656 17.3465 25.9839 17.5138 26.2399 17.5823C26.4958 17.6508 26.7685 17.6148 26.998 17.4824C27.2277 17.35 27.3954 17.1318 27.4643 16.8758C27.5331 16.6198 27.4975 16.3469 27.3652 16.1172C27.2754 15.9615 27.1453 15.8329 26.9886 15.7449C26.8318 15.6569 26.6543 15.6128 26.4746 15.6172V15.6172ZM53.4512 15.6211C53.2836 15.6287 53.1207 15.6783 52.9774 15.7653C52.834 15.8523 52.7149 15.974 52.6309 16.1191C52.5651 16.233 52.5224 16.3587 52.5052 16.4891C52.4881 16.6194 52.4968 16.7519 52.5309 16.8789C52.565 17.0059 52.6238 17.1249 52.704 17.2291C52.7841 17.3334 52.8841 17.4208 52.998 17.4863C53.2278 17.6186 53.5007 17.6542 53.7567 17.5854C54.0127 17.5165 54.2309 17.3488 54.3633 17.1191C54.4957 16.8896 54.5316 16.6169 54.4631 16.361C54.3947 16.105 54.2274 15.8866 53.998 15.7539C53.8322 15.6582 53.6424 15.6121 53.4512 15.6211ZM40 17C39.7348 17 39.4804 17.1054 39.2929 17.2929C39.1054 17.4804 39 17.7348 39 18C39 18.2652 39.1054 18.5196 39.2929 18.7071C39.4804 18.8946 39.7348 19 40 19C40.2652 19 40.5196 18.8946 40.7071 18.7071C40.8946 18.5196 41 18.2652 41 18C41 17.7348 40.8946 17.4804 40.7071 17.2929C40.5196 17.1054 40.2652 17 40 17ZM59.1055 19.9082C58.9715 19.9061 58.8385 19.931 58.7144 19.9813C58.5903 20.0317 58.4775 20.1064 58.3828 20.2012C58.1953 20.3887 58.09 20.643 58.09 20.9082C58.09 21.1734 58.1953 21.4277 58.3828 21.6152C58.5703 21.8027 58.8247 21.9081 59.0898 21.9081C59.355 21.9081 59.6093 21.8027 59.7969 21.6152C59.9844 21.4277 60.0897 21.1734 60.0897 20.9082C60.0897 20.643 59.9844 20.3887 59.7969 20.2012C59.6132 20.0174 59.3652 19.9123 59.1055 19.9082ZM63.3555 25.5C63.188 25.5037 63.0241 25.5493 62.8789 25.6328C62.7651 25.6985 62.6653 25.7861 62.5854 25.8904C62.5054 25.9947 62.4468 26.1137 62.4129 26.2407C62.379 26.3677 62.3704 26.5001 62.3877 26.6304C62.405 26.7607 62.4478 26.8863 62.5137 27C62.6464 27.2293 62.8647 27.3966 63.1207 27.4651C63.3767 27.5336 63.6494 27.4977 63.8789 27.3652C64.1086 27.2328 64.2763 27.0146 64.3451 26.7586C64.414 26.5026 64.3784 26.2298 64.2461 26C64.1563 25.8443 64.0262 25.7157 63.8694 25.6277C63.7127 25.5397 63.5352 25.4956 63.3555 25.5ZM31.8789 30.0977C28.4099 30.0977 25.9844 32.3018 25.9844 35.4648V35.5117H28.8203V35.4648C28.8203 33.7418 30.0152 32.5801 31.7852 32.5801C33.4492 32.5801 34.668 33.6585 34.668 35.1465C34.668 36.3415 34.0942 37.2205 31.7852 39.5645L26.1484 45.3301V47.4297H37.8906V44.8633H30.2969V44.6641L33.8359 41.1133C36.7069 38.2773 37.6328 36.7769 37.6328 34.9609C37.6328 32.1369 35.2189 30.0977 31.8789 30.0977ZM47.7227 30.5215C44.7337 35.0215 42.355 38.781 40.832 41.582V44.2773H49.0938V47.4316H51.9883V44.2793H54.2734V41.7246H51.9883V30.5215H47.7227ZM66.0859 32.0117C66.0625 32.0115 66.039 32.0122 66.0156 32.0137C65.9489 32.0181 65.8828 32.0292 65.8184 32.0469C65.5622 32.1155 65.3438 32.2831 65.2113 32.5128C65.0787 32.7424 65.0427 33.0153 65.1113 33.2715C65.18 33.5276 65.3476 33.746 65.5772 33.8786C65.8069 34.0112 66.0798 34.0471 66.3359 33.9785C66.5921 33.9099 66.8104 33.7423 66.943 33.5126C67.0756 33.283 67.1116 33.0101 67.043 32.7539C66.9866 32.5425 66.8624 32.3555 66.6896 32.2215C66.5167 32.0874 66.3047 32.0137 66.0859 32.0117ZM13.9102 32.0137C13.6914 32.0157 13.4794 32.0894 13.3065 32.2234C13.1336 32.3575 13.0095 32.5445 12.9531 32.7559C12.8845 33.012 12.9205 33.2849 13.0531 33.5146C13.1856 33.7442 13.404 33.9118 13.6602 33.9805C13.9163 34.0491 14.1892 34.0131 14.4189 33.8805C14.6485 33.7479 14.8161 33.5296 14.8848 33.2734C14.919 33.1465 14.9279 33.014 14.9109 32.8836C14.8939 32.7532 14.8513 32.6274 14.7857 32.5135C14.72 32.3996 14.6325 32.2997 14.5282 32.2196C14.4239 32.1396 14.3048 32.0809 14.1777 32.0469C14.0904 32.0238 14.0004 32.0126 13.9102 32.0137ZM48.9766 32.9805H49.1406V41.793H43.6328V41.6172C45.6018 38.1482 47.3596 35.3715 48.9766 32.9805ZM13 38C12.4696 38 11.9609 38.2107 11.5858 38.5858C11.2107 38.9609 11 39.4696 11 40C11 40.5304 11.2107 41.0391 11.5858 41.4142C11.9609 41.7893 12.4696 42 13 42C13.5304 42 14.0391 41.7893 14.4142 41.4142C14.7893 41.0391 15 40.5304 15 40C15 39.4696 14.7893 38.9609 14.4142 38.5858C14.0391 38.2107 13.5304 38 13 38ZM67 38C66.4696 38 65.9609 38.2107 65.5858 38.5858C65.2107 38.9609 65 39.4696 65 40C65 40.5304 65.2107 41.0391 65.5858 41.4142C65.9609 41.7893 66.4696 42 67 42C67.5304 42 68.0391 41.7893 68.4142 41.4142C68.7893 41.0391 69 40.5304 69 40C69 39.4696 68.7893 38.9609 68.4142 38.5858C68.0391 38.2107 67.5304 38 67 38ZM18 39C17.7348 39 17.4804 39.1054 17.2929 39.2929C17.1054 39.4804 17 39.7348 17 40C17 40.2652 17.1054 40.5196 17.2929 40.7071C17.4804 40.8946 17.7348 41 18 41C18.2652 41 18.5196 40.8946 18.7071 40.7071C18.8946 40.5196 19 40.2652 19 40C19 39.7348 18.8946 39.4804 18.7071 39.2929C18.5196 39.1054 18.2652 39 18 39ZM62 39C61.7348 39 61.4804 39.1054 61.2929 39.2929C61.1054 39.4804 61 39.7348 61 40C61 40.2652 61.1054 40.5196 61.2929 40.7071C61.4804 40.8946 61.7348 41 62 41C62.2652 41 62.5196 40.8946 62.7071 40.7071C62.8946 40.5196 63 40.2652 63 40C63 39.7348 62.8946 39.4804 62.7071 39.2929C62.5196 39.1054 62.2652 39 62 39ZM13.9277 45.9863C13.9043 45.9862 13.8808 45.9868 13.8574 45.9883C13.7907 45.9927 13.7246 46.0039 13.6602 46.0215C13.404 46.0901 13.1856 46.2577 13.0531 46.4874C12.9205 46.717 12.8845 46.9899 12.9531 47.2461C13.0218 47.5022 13.1894 47.7206 13.419 47.8532C13.6487 47.9858 13.9216 48.0217 14.1777 47.9531C14.4339 47.8845 14.6522 47.7169 14.7848 47.4872C14.9174 47.2576 14.9534 46.9847 14.8848 46.7285C14.8284 46.5172 14.7042 46.3301 14.5314 46.1961C14.3585 46.062 14.1465 45.9883 13.9277 45.9863V45.9863ZM66.0684 45.9922C65.85 45.9946 65.6384 46.0685 65.4659 46.2025C65.2934 46.3365 65.1696 46.5233 65.1133 46.7344C65.0447 46.9905 65.0806 47.2634 65.2132 47.4931C65.3458 47.7227 65.5642 47.8903 65.8203 47.959C66.0765 48.0276 66.3494 47.9916 66.579 47.8591C66.8087 47.7265 66.9763 47.5081 67.0449 47.252C67.1135 46.9958 67.0776 46.7229 66.945 46.4932C66.8124 46.2636 66.594 46.096 66.3379 46.0273C66.2501 46.0034 66.1594 45.9916 66.0684 45.9922ZM16.5918 52.498C16.4248 52.5026 16.2617 52.549 16.1172 52.6328C15.8875 52.7652 15.7198 52.9834 15.651 53.2394C15.5821 53.4954 15.6177 53.7683 15.75 53.998C15.8157 54.1119 15.9032 54.2116 16.0076 54.2916C16.1119 54.3715 16.2309 54.4302 16.3579 54.4641C16.4849 54.498 16.6173 54.5066 16.7476 54.4893C16.8779 54.472 17.0035 54.4292 17.1172 54.3633C17.3465 54.2305 17.5138 54.0122 17.5823 53.7562C17.6508 53.5003 17.6148 53.2276 17.4824 52.998C17.3926 52.8424 17.2625 52.7138 17.1058 52.6258C16.949 52.5378 16.7715 52.4937 16.5918 52.498ZM63.332 52.502C63.1647 52.5101 63.002 52.5601 62.859 52.6475C62.716 52.7348 62.5973 52.8567 62.5137 53.002C62.3812 53.2315 62.3453 53.5042 62.4138 53.7601C62.4823 54.0161 62.6496 54.2344 62.8789 54.3672C62.9926 54.4331 63.1182 54.4759 63.2485 54.4932C63.3788 54.5105 63.5112 54.5019 63.6382 54.468C63.7652 54.4341 63.8842 54.3754 63.9885 54.2955C64.0928 54.2155 64.1804 54.1158 64.2461 54.002C64.3119 53.8881 64.3546 53.7624 64.3717 53.632C64.3889 53.5017 64.3802 53.3692 64.3461 53.2422C64.3119 53.1152 64.2531 52.9962 64.173 52.892C64.0928 52.7877 63.9929 52.7003 63.8789 52.6348C63.7131 52.5391 63.5233 52.493 63.332 52.502ZM20.9219 58.0918C20.7883 58.09 20.6557 58.115 20.5319 58.1653C20.4081 58.2156 20.2956 58.2903 20.2012 58.3848C20.0137 58.5723 19.9084 58.8266 19.9084 59.0918C19.9084 59.357 20.0137 59.6113 20.2012 59.7988C20.3887 59.9863 20.643 60.0916 20.9082 60.0916C21.1734 60.0916 21.4277 59.9863 21.6152 59.7988C21.8027 59.6113 21.9081 59.357 21.9081 59.0918C21.9081 58.8266 21.8027 58.5723 21.6152 58.3848C21.4311 58.2005 21.1823 58.0954 20.9219 58.0918ZM59.1055 58.0918C58.9715 58.0897 58.8385 58.1146 58.7144 58.1649C58.5903 58.2153 58.4775 58.29 58.3828 58.3848C58.1953 58.5723 58.09 58.8266 58.09 59.0918C58.09 59.357 58.1953 59.6113 58.3828 59.7988C58.5703 59.9863 58.8247 60.0916 59.0898 60.0916C59.355 60.0916 59.6093 59.9863 59.7969 59.7988C59.9844 59.6113 60.0897 59.357 60.0897 59.0918C60.0897 58.8266 59.9844 58.5723 59.7969 58.3848C59.6132 58.201 59.3652 58.0959 59.1055 58.0918ZM40 61C39.7348 61 39.4804 61.1054 39.2929 61.2929C39.1054 61.4804 39 61.7348 39 62C39 62.2652 39.1054 62.5196 39.2929 62.7071C39.4804 62.8946 39.7348 63 40 63C40.2652 63 40.5196 62.8946 40.7071 62.7071C40.8946 62.5196 41 62.2652 41 62C41 61.7348 40.8946 61.4804 40.7071 61.2929C40.5196 61.1054 40.2652 61 40 61ZM53.4746 62.3809C53.3071 62.3845 53.1433 62.4302 52.998 62.5137C52.8841 62.5792 52.7841 62.6666 52.704 62.7709C52.6238 62.8751 52.565 62.9941 52.5309 63.1211C52.4968 63.2481 52.4881 63.3806 52.5052 63.5109C52.5224 63.6413 52.5651 63.767 52.6309 63.8809C52.6966 63.9947 52.7841 64.0944 52.8884 64.1744C52.9927 64.2544 53.1118 64.313 53.2387 64.3469C53.3657 64.3808 53.4981 64.3894 53.6284 64.3721C53.7587 64.3548 53.8843 64.312 53.998 64.2461C54.2274 64.1134 54.3947 63.895 54.4631 63.639C54.5316 63.3831 54.4957 63.1104 54.3633 62.8809C54.2736 62.7255 54.1438 62.5971 53.9875 62.5091C53.8311 62.4211 53.654 62.3768 53.4746 62.3809ZM26.4492 62.3848C26.282 62.3927 26.1195 62.4424 25.9765 62.5294C25.8335 62.6164 25.7147 62.7379 25.6309 62.8828C25.565 62.9965 25.5222 63.1221 25.5049 63.2524C25.4876 63.3827 25.4961 63.5151 25.5301 63.6421C25.564 63.7691 25.6226 63.8881 25.7026 63.9924C25.7825 64.0968 25.8823 64.1843 25.9961 64.25C26.1099 64.3158 26.2356 64.3585 26.366 64.3756C26.4964 64.3928 26.6289 64.3841 26.7558 64.35C26.8828 64.3159 27.0019 64.257 27.1061 64.1769C27.2103 64.0967 27.2977 63.9968 27.3633 63.8828C27.4955 63.6531 27.5312 63.3802 27.4623 63.1242C27.3935 62.8682 27.2258 62.65 26.9961 62.5176C26.8303 62.4219 26.6405 62.3758 26.4492 62.3848ZM40 65C39.4696 65 38.9609 65.2107 38.5858 65.5858C38.2107 65.9609 38 66.4696 38 67C38 67.5304 38.2107 68.0391 38.5858 68.4142C38.9609 68.7893 39.4696 69 40 69C40.5304 69 41.0391 68.7893 41.4142 68.4142C41.7893 68.0391 42 67.5304 42 67C42 66.4696 41.7893 65.9609 41.4142 65.5858C41.0391 65.2107 40.5304 65 40 65ZM33 65.0801C32.7813 65.0821 32.5692 65.1558 32.3964 65.2898C32.2235 65.4239 32.0994 65.6109 32.043 65.8223C31.9744 66.0784 32.0103 66.3513 32.1429 66.581C32.2755 66.8106 32.4939 66.9782 32.75 67.0469C33.0062 67.1155 33.2791 67.0795 33.5087 66.9469C33.7384 66.8144 33.9059 66.596 33.9746 66.3398C34.0432 66.0837 34.0073 65.8108 33.8747 65.5811C33.7421 65.3515 33.5237 65.1839 33.2676 65.1152C33.1804 65.0915 33.0904 65.0797 33 65.0801ZM47.0234 65.0801C46.9234 65.0762 46.8233 65.0874 46.7266 65.1133C46.4704 65.1819 46.2521 65.3495 46.1195 65.5792C45.9869 65.8088 45.9509 66.0817 46.0195 66.3379C46.0882 66.594 46.2558 66.8124 46.4854 66.945C46.7151 67.0776 46.988 67.1135 47.2441 67.0449C47.5003 66.9763 47.7187 66.8087 47.8512 66.579C47.9838 66.3494 48.0198 66.0765 47.9512 65.8203C47.8958 65.614 47.7759 65.4309 47.609 65.2977C47.4421 65.1645 47.2369 65.0882 47.0234 65.0801V65.0801Z" fill="black"/>
</svg>
