<svg width="80" height="80" viewBox="0 0 80 80" fill="none" xmlns="http://www.w3.org/2000/svg">
<path d="M11.5 14C7.92578 14 5.00781 16.9141 5 20.4844C5 20.4883 5 20.4883 5 20.4922C5 20.4961 5 20.4961 5 20.5V61.5C5 65.0781 7.92188 68 11.5 68H68.5C72.0781 68 75 65.0781 75 61.5V20.5C75 20.4961 75 20.4961 75 20.4922C75 20.4883 75 20.4883 75 20.4844C74.9922 16.9141 72.0742 14 68.5 14H11.5ZM11.5 16H68.5C69.4453 16 70.3203 16.2891 71.043 16.7812L70.8945 17.0508L71.2695 17.8633L72.1445 18.0508L72.25 18.0039C72.7227 18.7188 73 19.5703 73 20.4961C73 20.4961 73 20.4961 73 20.5C72.9961 22.1328 72.1992 23.6562 70.8594 24.5898L40 46.0938L9.14062 24.5898C7.80078 23.6562 7.00391 22.1328 7 20.5C7 20.4961 7 20.4961 7 20.4961C7 19.5352 7.30469 18.6523 7.8125 17.9219L8.38281 18.0039L9.01562 17.375L8.93359 16.8008C9.66016 16.3008 10.543 16 11.5 16ZM11.0312 18.3945L10.3984 19.0312L10.5273 19.918L10.7773 20.1641L10.8594 20.2227L11.7461 20.3477L12.3789 19.7188L12.25 18.8281L12 18.5781L11.9219 18.5234L11.0312 18.3945ZM68.3594 18.4062L68.043 18.5508L67.957 18.6094L67.5312 19.3945L67.9062 20.2109L68.7812 20.3945L69.1016 20.25L69.1836 20.1914L69.6094 19.4062L69.2344 18.5938L68.3594 18.4062ZM14.3945 20.7383L13.7617 21.375L13.8906 22.2617L14.1406 22.5117L14.2188 22.5664L15.1094 22.6953L15.7422 22.0625L15.6133 21.1719L15.3633 20.9258L15.2812 20.8672L14.3945 20.7383ZM65 20.75L64.6758 20.8945L64.5938 20.9531L64.168 21.7383L64.543 22.5547L65.418 22.7422L65.7383 22.5938L65.8203 22.5352L66.25 21.75L65.875 20.9375L65 20.75ZM17.7617 23.082L17.125 23.7188L17.2539 24.6055L17.5039 24.8555L17.5859 24.9102L18.4727 25.0391L19.1055 24.4062L18.9805 23.5195L18.7305 23.2695L18.6445 23.2148L17.7617 23.082ZM61.6328 23.0938L61.3125 23.2383L61.2305 23.2969L60.8008 24.082L61.1758 24.8984L62.0547 25.0859L62.375 24.9375L62.457 24.8789L62.8867 24.0938L62.5117 23.2812L61.6328 23.0938ZM7 25.3633C7.30469 25.6797 7.63281 25.9727 8 26.2305L11.9766 29C11.4336 29.0156 11 29.457 11 30C11 30.5508 11.4492 31 12 31C12.5508 31 13 30.5508 13 30C13 29.8906 12.9805 29.7813 12.9453 29.6758L40 48.5312L67.0547 29.6758C67.0195 29.7813 67 29.8906 67 30C67 30.5508 67.4492 31 68 31C68.5508 31 69 30.5508 69 30C69 29.457 68.5664 29.0117 68.0234 29L72 26.2305C72.3672 25.9727 72.6953 25.6797 73 25.3633V61.5C73 63.8281 71.2539 65.6992 69 65.9492C68.9727 65.418 68.5312 65 68 65C67.4492 65 67 65.4492 67 66H13C13 65.4492 12.5508 65 12 65C11.4688 65 11.0273 65.418 11 65.9492C8.74609 65.6992 7 63.8281 7 61.5V25.3633ZM21.125 25.4258L20.4883 26.0625L20.6172 26.9492L20.8672 27.1992L20.9492 27.2539L21.8359 27.3828L22.4688 26.75L22.3438 25.8633L22.0938 25.6133L22.0117 25.5586L21.125 25.4258ZM58.2695 25.4375L57.9492 25.582L57.8672 25.6406L57.4375 26.4297L57.8125 27.2422L58.6914 27.4297L59.0117 27.2812L59.0938 27.2227L59.5195 26.4375L59.1445 25.625L58.2695 25.4375ZM24.4883 27.7695L23.8555 28.4062L23.9844 29.293L24.2305 29.543L24.3125 29.5977L25.1992 29.7305L25.832 29.0938L25.7031 28.207L25.457 27.957L25.375 27.9023L24.4883 27.7695ZM54.9062 27.7812L54.5859 27.9258L54.5039 27.9844L54.0781 28.7734L54.4531 29.5898L55.3281 29.7734L55.6445 29.625L55.7305 29.5703L56.1562 28.7812L55.7812 27.9688L54.9062 27.7812ZM27.8516 30.1172L27.2188 30.75L27.3438 31.6367L27.5938 31.8867L27.6758 31.9414L28.5625 32.0742L29.1992 31.4375L29.0664 30.5508L28.8203 30.3008L28.7383 30.2461L27.8516 30.1172ZM51.543 30.125L51.2227 30.2734L51.1406 30.3281L50.7148 31.1172L51.0898 31.9336L51.9648 32.1211L52.2812 31.9688L52.3633 31.9141L52.793 31.125L52.418 30.3125L51.543 30.125ZM31.2148 32.4609L30.5781 33.0938L30.707 33.9805L30.957 34.2305L31.043 34.2852L31.9258 34.418L32.5625 33.7812L32.4336 32.8945L32.1836 32.6445L32.1016 32.5898L31.2148 32.4609ZM48.1797 32.4688L47.8594 32.6172L47.7773 32.6719L47.3477 33.4609L47.7227 34.2773L48.5977 34.4648L48.9219 34.3125L49 34.2578L49.4297 33.4688L49.0547 32.6562L48.1797 32.4688ZM12 33C11.4492 33 11 33.4492 11 34C11 34.5508 11.4492 35 12 35C12.5508 35 13 34.5508 13 34C13 33.4492 12.5508 33 12 33ZM68 33C67.4492 33 67 33.4492 67 34C67 34.5508 67.4492 35 68 35C68.5508 35 69 34.5508 69 34C69 33.4492 68.5508 33 68 33ZM34.5781 34.8047L33.9453 35.4375L34.0742 36.3281L34.3242 36.5742L34.4062 36.6289L35.293 36.7617L35.9219 36.125L35.7969 35.2383L35.5469 34.9883L35.4648 34.9336L34.5781 34.8047ZM44.8125 34.8125L44.4961 34.9609L44.4102 35.0195L43.9844 35.8086L44.3594 36.6211L45.2344 36.8086L45.5586 36.6602L45.6406 36.6016L46.0664 35.8125L45.6914 35L44.8125 34.8125ZM12 37C11.4492 37 11 37.4492 11 38C11 38.5508 11.4492 39 12 39C12.5508 39 13 38.5508 13 38C13 37.4492 12.5508 37 12 37ZM68 37C67.4492 37 67 37.4492 67 38C67 38.5508 67.4492 39 68 39C68.5508 39 69 38.5508 69 38C69 37.4492 68.5508 37 68 37ZM37.9414 37.1484L37.3086 37.7812L37.4375 38.6719L37.6875 38.918L37.7656 38.9766L38.6562 39.1055L39.2891 38.4688L39.1602 37.582L38.9102 37.3359L38.8281 37.2773L37.9414 37.1484ZM41.4531 37.1562L41.1289 37.3086L41.0469 37.3633L40.6211 38.1523L40.9961 38.9648L41.875 39.1523L42.1914 39.0039L42.2773 38.9492L42.7031 38.1602L42.3281 37.3438L41.4531 37.1562ZM12 41C11.4492 41 11 41.4492 11 42C11 42.5508 11.4492 43 12 43C12.5508 43 13 42.5508 13 42C13 41.4492 12.5508 41 12 41ZM68 41C67.4492 41 67 41.4492 67 42C67 42.5508 67.4492 43 68 43C68.5508 43 69 42.5508 69 42C69 41.4492 68.5508 41 68 41ZM12 45C11.4492 45 11 45.4492 11 46C11 46.5508 11.4492 47 12 47C12.5508 47 13 46.5508 13 46C13 45.4492 12.5508 45 12 45ZM68 45C67.4492 45 67 45.4492 67 46C67 46.5508 67.4492 47 68 47C68.5508 47 69 46.5508 69 46C69 45.4492 68.5508 45 68 45ZM12 49C11.4492 49 11 49.4492 11 50C11 50.5508 11.4492 51 12 51C12.5508 51 13 50.5508 13 50C13 49.4492 12.5508 49 12 49ZM68 49C67.4492 49 67 49.4492 67 50C67 50.5508 67.4492 51 68 51C68.5508 51 69 50.5508 69 50C69 49.4492 68.5508 49 68 49ZM12 53C11.4492 53 11 53.4492 11 54C11 54.5508 11.4492 55 12 55C12.5508 55 13 54.5508 13 54C13 53.4492 12.5508 53 12 53ZM68 53C67.4492 53 67 53.4492 67 54C67 54.5508 67.4492 55 68 55C68.5508 55 69 54.5508 69 54C69 53.4492 68.5508 53 68 53ZM12 57C11.4492 57 11 57.4492 11 58C11 58.5508 11.4492 59 12 59C12.5508 59 13 58.5508 13 58C13 57.4492 12.5508 57 12 57ZM68 57C67.4492 57 67 57.4492 67 58C67 58.5508 67.4492 59 68 59C68.5508 59 69 58.5508 69 58C69 57.4492 68.5508 57 68 57ZM12 61C11.4492 61 11 61.4492 11 62C11 62.5508 11.4492 63 12 63C12.5508 63 13 62.5508 13 62C13 61.4492 12.5508 61 12 61ZM68 61C67.4492 61 67 61.4492 67 62C67 62.5508 67.4492 63 68 63C68.5508 63 69 62.5508 69 62C69 61.4492 68.5508 61 68 61Z" fill="black"/>
</svg>
