<svg width="183" height="169" viewBox="0 0 183 169" fill="none" xmlns="http://www.w3.org/2000/svg">
<rect x="1.1" y="1.1" width="121.8" height="166.8" rx="4.9" fill="white" stroke="#292D32" stroke-width="2.2"/>
<line x1="1.1" y1="-1.1" x2="39.9" y2="-1.1" transform="matrix(1 8.74228e-08 8.74228e-08 -1 45 74)" stroke="#292D32" stroke-width="2.2" stroke-linecap="round"/>
<line x1="1.1" y1="-1.1" x2="31.9" y2="-1.1" transform="matrix(1 8.74228e-08 8.74228e-08 -1 45 69)" stroke="#292D32" stroke-width="2.2" stroke-linecap="round"/>
<line x1="1.1" y1="-1.1" x2="19.9" y2="-1.1" transform="matrix(1 0 0 -1 45 79)" stroke="#292D32" stroke-width="2.2" stroke-linecap="round"/>
<line x1="1.1" y1="-1.1" x2="19.9" y2="-1.1" transform="matrix(1 0 0 -1 45 59)" stroke="#292D32" stroke-width="2.2" stroke-linecap="round"/>
<line x1="81.9" y1="65.1" x2="46.1" y2="65.1" stroke="#292D32" stroke-width="2.2" stroke-linecap="round"/>
<line x1="1.1" y1="-1.1" x2="19.9" y2="-1.1" transform="matrix(1 0 0 -1 7 26)" stroke="#292D32" stroke-width="2.2" stroke-linecap="round"/>
<line x1="1.1" y1="-1.1" x2="19.9" y2="-1.1" transform="matrix(1 0 0 -1 7 35)" stroke="#292D32" stroke-width="2.2" stroke-linecap="round"/>
<line x1="1.1" y1="-1.1" x2="19.9" y2="-1.1" transform="matrix(1 0 0 -1 7 44)" stroke="#292D32" stroke-width="2.2" stroke-linecap="round"/>
<line x1="1.1" y1="-1.1" x2="19.9" y2="-1.1" transform="matrix(1 0 0 -1 7 53)" stroke="#292D32" stroke-width="2.2" stroke-linecap="round"/>
<line x1="2.1" y1="17.9" x2="121.9" y2="17.9" stroke="#292D32" stroke-width="2.2" stroke-linecap="round"/>
<line x1="1.1" y1="-1.1" x2="39.9" y2="-1.1" transform="matrix(1 8.74228e-08 8.74228e-08 -1 45 139)" stroke="#292D32" stroke-width="2.2" stroke-linecap="round"/>
<line x1="1.1" y1="-1.1" x2="31.9" y2="-1.1" transform="matrix(1 8.74228e-08 8.74228e-08 -1 45 134)" stroke="#292D32" stroke-width="2.2" stroke-linecap="round"/>
<line x1="1.1" y1="-1.1" x2="19.9" y2="-1.1" transform="matrix(1 0 0 -1 45 144)" stroke="#292D32" stroke-width="2.2" stroke-linecap="round"/>
<line x1="1.1" y1="-1.1" x2="19.9" y2="-1.1" transform="matrix(1 0 0 -1 45 124)" stroke="#292D32" stroke-width="2.2" stroke-linecap="round"/>
<line x1="81.9" y1="130.1" x2="46.1" y2="130.1" stroke="#292D32" stroke-width="2.2" stroke-linecap="round"/>
<rect x="44.1" y="25.1693" width="34.8" height="27.8" rx="4.9" fill="#292D32" stroke="white" stroke-width="2.2"/>
<path d="M45.4997 26.5695L77 51.5693" stroke="white" stroke-width="2.2"/>
<path d="M77 26.0693L45.5 51.5693" stroke="white" stroke-width="2.2"/>
<line x1="34.1" y1="19.1" x2="34.1" y2="167.9" stroke="#292D32" stroke-width="2.2" stroke-linecap="round"/>
<rect x="44.1" y="90.1693" width="34.8" height="27.8" rx="4.9" fill="#292D32" stroke="white" stroke-width="2.2"/>
<path d="M45.4997 91.5695L77 116.569" stroke="white" stroke-width="2.2"/>
<path d="M77 91.0693L45.5 116.569" stroke="white" stroke-width="2.2"/>
<circle cx="101" cy="10" r="2" fill="#292D32"/>
<circle cx="107" cy="10" r="2" fill="#292D32"/>
<circle cx="113" cy="10" r="2" fill="#292D32"/>
<path fill-rule="evenodd" clip-rule="evenodd" d="M139.485 91.8958L152.726 87.4821C157.522 85.9018 159.211 81.7605 159.156 78.4366C159.102 75.1126 157.358 71.0258 152.536 69.5273L104.339 54.5695C100.96 53.5342 97.4182 54.4061 94.9116 56.9127C92.405 59.4192 91.5331 62.9611 92.5957 66.3668L107.553 114.564C109.052 119.387 113.139 121.185 116.463 121.185C119.787 121.185 123.901 119.523 125.508 114.755L129.922 101.514C130.658 99.2521 131.911 97.236 133.573 95.574C135.235 93.912 137.251 92.6587 139.485 91.8958Z" fill="#292D32"/>
<path d="M139.485 91.8958L139.137 90.8523L139.13 90.8549L139.485 91.8958ZM152.726 87.4821L152.382 86.4373L152.379 86.4385L152.726 87.4821ZM152.536 69.5273L152.862 68.4769L152.862 68.4767L152.536 69.5273ZM104.339 54.5695L104.665 53.519L104.661 53.5178L104.339 54.5695ZM92.5957 66.3668L93.6463 66.0408L93.6458 66.0392L92.5957 66.3668ZM107.553 114.564L106.503 114.89L106.503 114.891L107.553 114.564ZM125.508 114.755L126.551 115.106L126.552 115.103L125.508 114.755ZM129.922 101.514L130.966 101.861L130.968 101.854L129.922 101.514ZM139.833 92.9394L153.074 88.5256L152.379 86.4385L139.137 90.8523L139.833 92.9394ZM153.071 88.5268C158.432 86.7599 160.317 82.0982 160.256 78.4186L158.057 78.4546C158.105 81.4229 156.611 85.0438 152.382 86.4373L153.071 88.5268ZM160.256 78.4186C160.196 74.7544 158.255 70.1526 152.862 68.4769L152.209 70.5778C156.461 71.899 158.008 75.4708 158.057 78.4546L160.256 78.4186ZM152.862 68.4767L104.665 53.519L104.012 55.6201L152.21 70.5779L152.862 68.4767ZM104.661 53.5178C100.895 52.3637 96.9294 53.3392 94.1338 56.1348L95.6894 57.6905C97.9069 55.4729 101.025 54.7047 104.016 55.6213L104.661 53.5178ZM94.1338 56.1348C91.3368 58.9318 90.3617 62.8999 91.5456 66.6945L93.6458 66.0392C92.7045 63.0224 93.4732 59.9067 95.6894 57.6905L94.1338 56.1348ZM91.5451 66.6929L106.503 114.89L108.604 114.238L93.6463 66.0408L91.5451 66.6929ZM106.503 114.891C108.176 120.273 112.771 122.285 116.463 122.285L116.463 120.085C113.507 120.085 109.928 118.5 108.604 114.238L106.503 114.891ZM116.463 122.285C120.123 122.285 124.753 120.438 126.551 115.106L124.466 114.403C123.048 118.608 119.45 120.085 116.463 120.085L116.463 122.285ZM126.552 115.103L130.966 101.861L128.878 101.166L124.465 114.407L126.552 115.103ZM130.968 101.854C131.649 99.7609 132.809 97.8938 134.351 96.3518L132.795 94.7962C131.013 96.5782 129.666 98.7434 128.876 101.173L130.968 101.854ZM134.351 96.3518C135.893 94.8095 137.764 93.6458 139.841 92.9368L139.13 90.8549C136.738 91.6717 134.577 93.0145 132.795 94.7962L134.351 96.3518Z" fill="white"/>
</svg>
