<svg width="153" height="179" viewBox="0 0 153 179" fill="none" xmlns="http://www.w3.org/2000/svg">
<rect x="1.1" y="1.1" width="87.8" height="167.8" rx="4.9" fill="white" stroke="#292D32" stroke-width="2.2"/>
<line x1="1.1" y1="-1.1" x2="19.9" y2="-1.1" transform="matrix(1 0 0 -1 35 8)" stroke="#292D32" stroke-width="2.2" stroke-linecap="round"/>
<line x1="23.1" y1="159.9" x2="66.9" y2="159.9" stroke="#292D32" stroke-width="2.2" stroke-linecap="round"/>
<line x1="1.1" y1="-1.1" x2="66.4" y2="-1.1" transform="matrix(1 1.12237e-07 6.80948e-08 -1 11.6133 43)" stroke="#292D32" stroke-width="2.2" stroke-linecap="round"/>
<line x1="1.1" y1="-1.1" x2="53.3355" y2="-1.1" transform="matrix(1 1.12237e-07 6.80948e-08 -1 11.6133 38)" stroke="#292D32" stroke-width="2.2" stroke-linecap="round"/>
<line x1="1.1" y1="-1.1" x2="33.7387" y2="-1.1" transform="matrix(1 0 0 -1 11.6133 48)" stroke="#292D32" stroke-width="2.2" stroke-linecap="round"/>
<line x1="1.1" y1="-1.1" x2="33.7387" y2="-1.1" transform="matrix(1 0 0 -1 11.6133 33)" stroke="#292D32" stroke-width="2.2" stroke-linecap="round"/>
<rect x="12.7123" y="62.0629" width="65.3" height="52.8734" rx="4.9" fill="white" stroke="#292D32" stroke-width="2.2"/>
<path fill-rule="evenodd" clip-rule="evenodd" d="M109.089 125.498L122.33 121.085C127.125 119.504 128.814 115.363 128.76 112.039C128.705 108.715 126.962 104.628 122.139 103.13L73.942 88.1721C70.5636 87.1367 67.0217 88.0086 64.5151 90.5152C62.0085 93.0218 61.1366 96.5637 62.1992 99.9694L77.157 148.167C78.6555 152.989 82.7423 154.787 86.0663 154.787C89.3902 154.787 93.5043 153.125 95.1118 148.357L99.5255 135.116C100.261 132.855 101.514 130.839 103.176 129.177C104.838 127.515 106.855 126.261 109.089 125.498Z" fill="#292D32"/>
<path d="M109.089 125.498L108.741 124.455L108.733 124.457L109.089 125.498ZM122.33 121.085L121.986 120.04L121.982 120.041L122.33 121.085ZM122.139 103.13L122.466 102.079L122.465 102.079L122.139 103.13ZM73.942 88.1721L74.2681 87.1215L74.2643 87.1204L73.942 88.1721ZM62.1992 99.9694L63.2498 99.6433L63.2493 99.6417L62.1992 99.9694ZM77.157 148.167L76.1064 148.493L76.1065 148.493L77.157 148.167ZM95.1118 148.357L96.1541 148.709L96.1553 148.705L95.1118 148.357ZM99.5255 135.116L100.569 135.464L100.572 135.456L99.5255 135.116ZM109.437 126.542L122.678 122.128L121.982 120.041L108.741 124.455L109.437 126.542ZM122.674 122.129C128.036 120.362 129.92 115.701 129.86 112.021L127.66 112.057C127.709 115.025 126.214 118.646 121.986 120.04L122.674 122.129ZM129.86 112.021C129.8 108.357 127.859 103.755 122.466 102.079L121.813 104.18C126.065 105.502 127.611 109.073 127.66 112.057L129.86 112.021ZM122.465 102.079L74.2681 87.1215L73.616 89.2226L121.813 104.18L122.465 102.079ZM74.2643 87.1204C70.4984 85.9663 66.5329 86.9418 63.7373 89.7374L65.2929 91.293C67.5105 89.0754 70.6288 88.3072 73.6197 89.2238L74.2643 87.1204ZM63.7373 89.7374C60.9403 92.5343 59.9652 96.5024 61.1491 100.297L63.2493 99.6417C62.3081 96.6249 63.0767 93.5092 65.2929 91.293L63.7373 89.7374ZM61.1486 100.295L76.1064 148.493L78.2076 147.841L63.2498 99.6433L61.1486 100.295ZM76.1065 148.493C77.779 153.876 82.3741 155.887 86.0663 155.887L86.0663 153.687C83.1105 153.687 79.5319 152.103 78.2074 147.84L76.1065 148.493ZM86.0663 155.887C89.7269 155.887 94.3566 154.04 96.1541 148.709L94.0694 148.006C92.6519 152.21 89.0535 153.687 86.0663 153.687L86.0663 155.887ZM96.1553 148.705L100.569 135.464L98.482 134.768L94.0682 148.009L96.1553 148.705ZM100.572 135.456C101.252 133.363 102.412 131.496 103.954 129.954L102.399 128.399C100.617 130.181 99.2699 132.346 98.4795 134.776L100.572 135.456ZM103.954 129.954C105.497 128.412 107.368 127.248 109.444 126.539L108.733 124.457C106.341 125.274 104.18 126.617 102.399 128.399L103.954 129.954Z" fill="white"/>
<line x1="1.1" y1="-1.1" x2="80.0141" y2="-1.1" transform="matrix(-0.787421 0.616416 -0.381244 -0.924474 76.9355 63)" stroke="#292D32" stroke-width="2.2" stroke-linecap="round"/>
<line x1="1.1" y1="-1.1" x2="80.5869" y2="-1.1" transform="matrix(0.790785 0.612094 -0.377574 0.925979 13.0645 64)" stroke="#292D32" stroke-width="2.2" stroke-linecap="round"/>
</svg>
