<svg width="181" height="181" viewBox="0 0 181 181" fill="none" xmlns="http://www.w3.org/2000/svg">
<rect x="1.1" y="1.1" width="121.8" height="166.8" rx="4.9" fill="white" stroke="#292D32" stroke-width="2.2"/>
<line x1="1.1" y1="-1.1" x2="39.9" y2="-1.1" transform="matrix(1 8.74228e-08 8.74228e-08 -1 13 83.1387)" stroke="#292D32" stroke-width="2.2" stroke-linecap="round"/>
<line x1="1.1" y1="-1.1" x2="39.9" y2="-1.1" transform="matrix(1 8.74228e-08 8.74228e-08 -1 13 154)" stroke="#292D32" stroke-width="2.2" stroke-linecap="round"/>
<line x1="1.1" y1="-1.1" x2="31.9" y2="-1.1" transform="matrix(1 8.74228e-08 8.74228e-08 -1 13 78.1387)" stroke="#292D32" stroke-width="2.2" stroke-linecap="round"/>
<line x1="1.1" y1="-1.1" x2="19.9" y2="-1.1" transform="matrix(1 0 0 -1 13 88.1387)" stroke="#292D32" stroke-width="2.2" stroke-linecap="round"/>
<line x1="1.1" y1="-1.1" x2="19.9" y2="-1.1" transform="matrix(1 0 0 -1 13 68.1387)" stroke="#292D32" stroke-width="2.2" stroke-linecap="round"/>
<line x1="49.9" y1="74.2387" x2="14.1" y2="74.2387" stroke="#292D32" stroke-width="2.2" stroke-linecap="round"/>
<rect x="72.1" y="64.308" width="34.8" height="27.8" rx="4.9" fill="#292D32" stroke="white" stroke-width="2.2"/>
<path d="M73.4997 65.7082L105 90.708" stroke="white" stroke-width="2.2"/>
<path d="M105 65.208L73.5 90.708" stroke="white" stroke-width="2.2"/>
<line x1="1.1" y1="-1.1" x2="39.9" y2="-1.1" transform="matrix(1 8.74228e-08 8.74228e-08 -1 71 43)" stroke="#292D32" stroke-width="2.2" stroke-linecap="round"/>
<line x1="1.1" y1="-1.1" x2="31.9" y2="-1.1" transform="matrix(1 8.74228e-08 8.74228e-08 -1 71 38)" stroke="#292D32" stroke-width="2.2" stroke-linecap="round"/>
<line x1="1.1" y1="-1.1" x2="19.9" y2="-1.1" transform="matrix(1 0 0 -1 71 48)" stroke="#292D32" stroke-width="2.2" stroke-linecap="round"/>
<line x1="1.1" y1="-1.1" x2="19.9" y2="-1.1" transform="matrix(1 0 0 -1 71 28)" stroke="#292D32" stroke-width="2.2" stroke-linecap="round"/>
<line x1="107.9" y1="34.1" x2="72.1" y2="34.1" stroke="#292D32" stroke-width="2.2" stroke-linecap="round"/>
<rect x="14.1" y="24.1693" width="34.8" height="27.8" rx="4.9" fill="#292D32" stroke="white" stroke-width="2.2"/>
<path d="M15.4997 25.5695L47 50.5693" stroke="white" stroke-width="2.2"/>
<path d="M47 25.0693L15.5 50.5693" stroke="white" stroke-width="2.2"/>
<line x1="1.1" y1="-1.1" x2="39.9" y2="-1.1" transform="matrix(1 8.74228e-08 8.74228e-08 -1 71 123)" stroke="#292D32" stroke-width="2.2" stroke-linecap="round"/>
<line x1="1.1" y1="-1.1" x2="31.9" y2="-1.1" transform="matrix(1 8.74228e-08 8.74228e-08 -1 71 118)" stroke="#292D32" stroke-width="2.2" stroke-linecap="round"/>
<line x1="1.1" y1="-1.1" x2="19.9" y2="-1.1" transform="matrix(1 0 0 -1 71 128)" stroke="#292D32" stroke-width="2.2" stroke-linecap="round"/>
<line x1="1.1" y1="-1.1" x2="19.9" y2="-1.1" transform="matrix(1 0 0 -1 71 108)" stroke="#292D32" stroke-width="2.2" stroke-linecap="round"/>
<line x1="107.9" y1="114.1" x2="72.1" y2="114.1" stroke="#292D32" stroke-width="2.2" stroke-linecap="round"/>
<rect x="14.1" y="104.169" width="34.8" height="27.8" rx="4.9" fill="#292D32" stroke="white" stroke-width="2.2"/>
<path d="M15.4997 105.569L47 130.569" stroke="white" stroke-width="2.2"/>
<path d="M47 105.069L15.5 130.569" stroke="white" stroke-width="2.2"/>
<circle cx="15" cy="10" r="2" fill="#292D32"/>
<circle cx="21" cy="10" r="2" fill="#292D32"/>
<circle cx="27" cy="10" r="2" fill="#292D32"/>
<path fill-rule="evenodd" clip-rule="evenodd" d="M137.485 127.896L150.726 123.482C155.522 121.902 157.211 117.761 157.156 114.437C157.102 111.113 155.358 107.026 150.536 105.527L102.339 90.5695C98.9601 89.5342 95.4182 90.4061 92.9116 92.9127C90.405 95.4192 89.5331 98.9611 90.5957 102.367L105.553 150.564C107.052 155.387 111.139 157.185 114.463 157.185C117.787 157.185 121.901 155.523 123.508 150.755L127.922 137.514C128.658 135.252 129.911 133.236 131.573 131.574C133.235 129.912 135.251 128.659 137.485 127.896Z" fill="#292D32"/>
<path d="M137.485 127.896L137.137 126.852L137.13 126.855L137.485 127.896ZM150.726 123.482L150.382 122.437L150.379 122.439L150.726 123.482ZM150.536 105.527L150.862 104.477L150.862 104.477L150.536 105.527ZM102.339 90.5695L102.665 89.519L102.661 89.5178L102.339 90.5695ZM90.5957 102.367L91.6463 102.041L91.6458 102.039L90.5957 102.367ZM105.553 150.564L104.503 150.89L104.503 150.891L105.553 150.564ZM123.508 150.755L124.551 151.106L124.552 151.103L123.508 150.755ZM127.922 137.514L128.966 137.861L128.968 137.854L127.922 137.514ZM137.833 128.939L151.074 124.526L150.379 122.439L137.137 126.852L137.833 128.939ZM151.071 124.527C156.432 122.76 158.317 118.098 158.256 114.419L156.057 114.455C156.105 117.423 154.611 121.044 150.382 122.437L151.071 124.527ZM158.256 114.419C158.196 110.754 156.255 106.153 150.862 104.477L150.209 106.578C154.461 107.899 156.008 111.471 156.057 114.455L158.256 114.419ZM150.862 104.477L102.665 89.519L102.012 91.6201L150.21 106.578L150.862 104.477ZM102.661 89.5178C98.8949 88.3637 94.9294 89.3392 92.1338 92.1348L93.6894 93.6905C95.9069 91.4729 99.0252 90.7047 102.016 91.6213L102.661 89.5178ZM92.1338 92.1348C89.3368 94.9318 88.3617 98.8999 89.5456 102.694L91.6458 102.039C90.7045 99.0224 91.4732 95.9067 93.6894 93.6905L92.1338 92.1348ZM89.5451 102.693L104.503 150.89L106.604 150.238L91.6463 102.041L89.5451 102.693ZM104.503 150.891C106.176 156.273 110.771 158.285 114.463 158.285L114.463 156.085C111.507 156.085 107.928 154.5 106.604 150.238L104.503 150.891ZM114.463 158.285C118.123 158.285 122.753 156.438 124.551 151.106L122.466 150.403C121.048 154.608 117.45 156.085 114.463 156.085L114.463 158.285ZM124.552 151.103L128.966 137.861L126.878 137.166L122.465 150.407L124.552 151.103ZM128.968 137.854C129.649 135.761 130.809 133.894 132.351 132.352L130.795 130.796C129.013 132.578 127.666 134.743 126.876 137.173L128.968 137.854ZM132.351 132.352C133.893 130.81 135.764 129.646 137.841 128.937L137.13 126.855C134.738 127.672 132.577 129.015 130.795 130.796L132.351 132.352Z" fill="white"/>
</svg>
